<?xml version="1.0" encoding="utf-8"?>
<!-- Generator: Adobe Illustrator 24.0.0, SVG Export Plug-In . SVG Version: 6.00 Build 0)  -->
<svg version="1.1" xmlns="http://www.w3.org/2000/svg" xmlns:xlink="http://www.w3.org/1999/xlink" x="0px" y="0px"
	 viewBox="0 0 501.98 285.83" style="enable-background:new 0 0 501.98 285.83;" xml:space="preserve">
<style type="text/css">
	.st0{display:none;}
	.st1{display:inline;fill:#ECEFF1;}
	.st2{fill:#4D148C;}
	.st3{fill:#FF6600;}
	.st4{fill:#FFFFFF;}
	.st5{fill:#F6D4A6;}
	.st6{fill:#D9B27F;}
	.st7{fill:#B89671;}
	.st8{fill:#C89770;}
	.st9{fill:#999999;}
	.st10{fill:#1D1D1B;}
</style>
<g id="BACKGROUND" class="st0">
	<rect x="1.3" y="0" class="st1" width="500" height="500"/>
</g>
<g id="OBJECTS">
	<g>
		<g>
			<path class="st2" d="M472.11,145.91H168.37c-7.65,0-13.91-6.26-13.91-13.91V13.91c0-7.65,6.26-13.91,13.91-13.91h303.75
				c7.65,0,13.91,6.26,13.91,13.91V132C486.03,139.65,479.77,145.91,472.11,145.91"/>
			<path class="st3" d="M182.04,15.27c-6.79,0-12.31,5.52-12.31,12.31v118.09c0,6.79,5.52,12.31,12.31,12.31h303.75
				c6.79,0,12.31-5.52,12.31-12.31V27.58c0-6.79-5.52-12.31-12.31-12.31H182.04z M485.79,161.18H182.04
				c-8.55,0-15.51-6.96-15.51-15.51V27.58c0-8.55,6.96-15.51,15.51-15.51h303.75c8.55,0,15.51,6.96,15.51,15.51v118.09
				C501.3,154.22,494.34,161.18,485.79,161.18"/>
			<path class="st4" d="M469.98,93.65c2.69,0,2.69-4.17,0-4.17C467.29,89.48,467.29,93.65,469.98,93.65"/>
			<path class="st4" d="M469.98,129.16h1.18c2.68,0,2.69-4.17,0-4.17h-1.18C467.29,124.99,467.29,129.16,469.98,129.16"/>
			<path class="st4" d="M477.08,111.41c2.69,0,2.69-4.17,0-4.17C474.39,107.24,474.39,111.41,477.08,111.41"/>
			<path class="st4" d="M183.52,29.06c2.69,0,2.69-4.17,0-4.17C180.83,24.89,180.83,29.06,183.52,29.06"/>
			<path class="st4" d="M187.97,50.65v-1.18c0-2.68-4.17-2.69-4.17,0v1.18C183.8,53.34,187.97,53.34,187.97,50.65"/>
			<path class="st4" d="M459.12,110.94c-1.04-1.35-2.97-2.7-5.78-4.04c-2.13-1.01-3.47-1.72-4.04-2.11s-0.98-0.79-1.24-1.21
				c-0.26-0.42-0.39-0.91-0.39-1.47c0-0.9,0.32-1.64,0.97-2.2c0.64-0.56,1.57-0.84,2.78-0.84c1.01,0,2.05,0.13,3.1,0.39
				c1.05,0.26,2.38,0.72,3.98,1.38l2.06-4.96c-1.55-0.67-3.03-1.19-4.45-1.56c-1.42-0.37-2.91-0.56-4.47-0.56
				c-3.18,0-5.67,0.76-7.48,2.28c-1.8,1.52-2.7,3.61-2.7,6.27c0,1.41,0.27,2.65,0.82,3.7c0.55,1.06,1.28,1.98,2.2,2.78
				c0.92,0.8,2.3,1.63,4.13,2.49c1.96,0.93,3.26,1.61,3.9,2.04c0.64,0.43,1.12,0.87,1.45,1.33c0.33,0.46,0.49,0.99,0.49,1.57
				c0,1.06-0.37,1.85-1.12,2.39c-0.75,0.54-1.82,0.8-3.22,0.8c-1.17,0-2.45-0.19-3.86-0.56c-1.41-0.37-3.12-1.01-5.15-1.91v5.92
				c2.47,1.21,5.31,1.81,8.52,1.81c3.48,0,6.2-0.78,8.16-2.35c1.95-1.56,2.93-3.7,2.93-6.42
				C460.68,113.95,460.16,112.29,459.12,110.94 M416.7,101.58c1.29-1.71,3.2-2.56,5.74-2.56c5.06,0,7.59,3.39,7.59,10.16
				c0,6.76-2.54,10.14-7.63,10.14c-2.54,0-4.44-0.85-5.72-2.55c-1.27-1.7-1.91-4.23-1.91-7.59S415.41,103.29,416.7,101.58
				 M433.05,97.71c-2.45-2.66-5.98-3.99-10.6-3.99c-4.62,0-8.17,1.32-10.64,3.96c-2.48,2.64-3.71,6.46-3.71,11.47
				c0,5.01,1.23,8.85,3.7,11.52c2.47,2.67,6.01,4.01,10.61,4.01c4.61,0,8.15-1.34,10.61-4.01c2.47-2.67,3.7-6.5,3.7-11.48
				C436.72,104.19,435.49,100.37,433.05,97.71 M396.65,99.5h8.17v-5.31H382.1v5.31h8.17v24.77h6.38V99.5z M377.5,94.19h-6.38v30.07
				h6.38V94.19z M357.42,94.19v18.37c0,2.33-0.47,4.04-1.41,5.13c-0.94,1.09-2.45,1.64-4.54,1.64c-2.15,0-3.7-0.54-4.63-1.63
				c-0.93-1.08-1.4-2.78-1.4-5.1V94.19h-6.36v19.38c0,3.44,1.07,6.15,3.21,8.13c2.14,1.98,5.14,2.97,9.01,2.97
				c2.57,0,4.79-0.44,6.67-1.34c1.88-0.89,3.32-2.17,4.31-3.85c0.99-1.67,1.49-3.62,1.49-5.84V94.19H357.42z M326.52,99.5h8.17
				v-5.31h-22.71v5.31h8.17v24.77h6.38V99.5z M292.75,111.76c2.14-6.93,3.44-11.26,3.89-13.02c0.11,0.49,0.29,1.17,0.55,2.02
				c0.25,0.85,1.39,4.52,3.4,11.01H292.75z M311.16,124.26l-10.66-30.2h-7.8l-10.61,30.2h6.87l2.18-7.16h10.96l2.18,7.16H311.16z
				 M267.86,112.72l7.18,11.54h7.08c-1.37-1.98-4.32-6.34-8.85-13.1c1.78-0.78,3.16-1.86,4.13-3.24c0.97-1.38,1.46-2.95,1.46-4.72
				c0-3.03-0.98-5.29-2.94-6.78c-1.96-1.49-4.98-2.23-9.07-2.23h-8.76v30.07h6.38v-11.54H267.86z M264.46,99.41h1.93
				c2.06,0,3.58,0.3,4.56,0.9c0.98,0.6,1.47,1.62,1.47,3.04c0,1.44-0.48,2.5-1.44,3.17c-0.96,0.67-2.45,1.01-4.46,1.01h-2.06V99.41z
				 M239.02,112.68h5.7v6.27c-1.37,0.27-2.72,0.41-4.05,0.41c-2.55,0-4.5-0.86-5.83-2.58c-1.34-1.72-2.01-4.21-2.01-7.48
				c0-3.13,0.83-5.62,2.49-7.47c1.66-1.85,3.87-2.78,6.62-2.78c2.37,0,4.66,0.55,6.85,1.65l2.12-5.1c-2.87-1.24-5.84-1.85-8.93-1.85
				c-4.92,0-8.77,1.36-11.55,4.07c-2.78,2.72-4.17,6.5-4.17,11.35c0,4.99,1.2,8.82,3.59,11.49c2.39,2.67,5.86,4,10.4,4
				c1.78,0,3.53-0.13,5.24-0.38c1.71-0.25,3.53-0.7,5.46-1.33v-15.59h-11.93V112.68z"/>
			<path class="st3" d="M427.38,55.95c-1.39-1.8-3.96-3.6-7.71-5.39c-2.83-1.35-4.63-2.29-5.39-2.81c-0.76-0.52-1.31-1.06-1.66-1.62
				c-0.35-0.56-0.52-1.21-0.52-1.96c0-1.21,0.43-2.18,1.29-2.93c0.86-0.75,2.09-1.13,3.7-1.13c1.35,0,2.73,0.17,4.13,0.52
				c1.4,0.35,3.17,0.96,5.31,1.84l2.74-6.61c-2.07-0.9-4.04-1.59-5.94-2.08c-1.89-0.49-3.88-0.74-5.97-0.74
				c-4.24,0-7.57,1.01-9.97,3.04c-2.4,2.03-3.61,4.82-3.61,8.37c0,1.88,0.37,3.53,1.1,4.94c0.73,1.41,1.71,2.64,2.93,3.7
				c1.22,1.06,3.06,2.17,5.51,3.32c2.61,1.24,4.35,2.15,5.2,2.71c0.85,0.57,1.49,1.16,1.93,1.77c0.44,0.61,0.66,1.31,0.66,2.1
				c0,1.41-0.5,2.47-1.49,3.18c-1,0.71-2.43,1.07-4.29,1.07c-1.55,0-3.27-0.25-5.14-0.74c-1.87-0.49-4.17-1.34-6.87-2.55v7.9
				c3.29,1.61,7.08,2.41,11.35,2.41c4.64,0,8.27-1.04,10.88-3.13c2.61-2.08,3.91-4.94,3.91-8.56
				C429.46,59.96,428.77,57.75,427.38,55.95 M370.8,43.47c1.72-2.28,4.27-3.41,7.65-3.41c6.75,0,10.12,4.52,10.12,13.55
				c0,9.01-3.39,13.52-10.18,13.52c-3.38,0-5.92-1.13-7.62-3.4c-1.7-2.27-2.55-5.64-2.55-10.12
				C368.22,49.13,369.08,45.75,370.8,43.47 M392.59,38.3c-3.26-3.55-7.98-5.32-14.14-5.32c-6.16,0-10.89,1.76-14.19,5.28
				c-3.3,3.52-4.95,8.62-4.95,15.29c0,6.67,1.65,11.79,4.94,15.36c3.29,3.57,8.01,5.35,14.15,5.35c6.14,0,10.86-1.78,14.15-5.35
				c3.29-3.57,4.94-8.67,4.94-15.3C397.49,46.95,395.85,41.85,392.59,38.3 M347.6,30.4c1.3-0.91,3.09-2.31,5.39-4.18
				c2.29-1.87,3.92-3.29,4.87-4.24v-0.58h-9.38c-1.15,1.85-3.3,4.6-6.45,8.26v0.74H347.6z M351,33.61h-8.5v40.1h8.5V33.61z
				 M321.27,57.47c-1.17,4.21-1.86,7.15-2.06,8.83c-0.11-0.73-0.39-2.03-0.84-3.91s-0.88-3.51-1.3-4.92l-7.54-23.86h-8.58l13.6,40.1
				h9.27l13.63-40.1h-8.58L321.27,57.47z M295.9,33.61h-7.65v18.98c0,2.16,0.14,5.84,0.41,11.05h-0.19l-17.42-30.03h-10.72v40.1h7.6
				V54.84c0-2.29-0.18-6.11-0.52-11.46h0.25l17.44,30.33h10.81V33.61z M251.96,66.69h-14.59V56.35h13.58v-6.97h-13.58v-8.8h14.59
				v-6.97h-23.09v40.1h23.09V66.69z"/>
		</g>
		<polygon class="st5" points="1.3,244.4 109.03,276.19 109.03,138.56 1.3,106.77 		"/>
		<polygon class="st6" points="1.3,106.77 109.03,138.55 216.76,106.77 109.03,74.98 		"/>
		<polygon class="st7" points="109.03,138.55 109.03,276.19 216.76,244.4 216.76,175.58 216.76,106.77 		"/>
		<polygon class="st8" points="70.99,86.2 47.74,93.06 155.47,124.85 178.72,117.99 		"/>
		<polygon class="st6" points="178.72,168.73 178.72,117.99 155.47,124.85 155.47,175.59 		"/>
		<polygon class="st8" points="40.96,146.99 94.34,162.74 94.34,155.51 40.96,139.76 		"/>
		<polygon class="st8" points="40.96,158.72 94.34,174.47 94.34,167.24 40.96,151.49 		"/>
		<path class="st4" d="M163.4,165.33c2.69,0,2.69-4.17,0-4.17C160.71,161.15,160.71,165.33,163.4,165.33"/>
		<path class="st4" d="M164.58,151.12c2.69,0,2.69-4.17,0-4.17C161.89,146.95,161.89,151.12,164.58,151.12"/>
		<path class="st4" d="M152.74,119.16c2.68,0,2.69-4.17,0-4.17C150.06,114.99,150.05,119.16,152.74,119.16"/>
		<path class="st9" d="M493.21,271.27c0.49-0.72,1.27-1.07,2.35-1.07c2.06,0,3.09,1.38,3.09,4.15c0,2.8-1.02,4.2-3.07,4.2
			c-2.07,0-3.1-1.4-3.1-4.2C492.48,273.02,492.72,271.99,493.21,271.27 M499.76,269.79c-1.02-1.13-2.41-1.69-4.17-1.69
			c-1.83,0-3.26,0.55-4.26,1.66c-1.01,1.1-1.51,2.64-1.51,4.6c0,1.26,0.23,2.37,0.7,3.33c0.47,0.96,1.14,1.69,2.01,2.2
			c0.87,0.51,1.87,0.77,3,0.77c1.81,0,3.22-0.56,4.24-1.67c1.02-1.11,1.52-2.66,1.52-4.64C501.3,272.44,500.79,270.92,499.76,269.79
			 M486.22,280.48c0.52-0.12,1.01-0.31,1.47-0.58v-2.25c-1.02,0.57-2.11,0.86-3.25,0.86c-1.01,0-1.77-0.34-2.3-1.03
			c-0.52-0.68-0.78-1.7-0.78-3.06c0-2.78,1.05-4.18,3.15-4.18c0.71,0,1.61,0.21,2.7,0.64l0.78-2.07c-1.02-0.48-2.17-0.71-3.45-0.71
			c-1.88,0-3.33,0.55-4.32,1.64c-1,1.1-1.5,2.66-1.5,4.7c0,2,0.48,3.54,1.43,4.61c0.95,1.07,2.35,1.61,4.18,1.61
			C485.07,280.65,485.7,280.6,486.22,280.48 M473.4,266.14c0.25,0.25,0.61,0.38,1.08,0.38c0.45,0,0.81-0.13,1.06-0.38
			c0.25-0.25,0.38-0.6,0.38-1.04c0-0.46-0.13-0.81-0.38-1.06c-0.25-0.25-0.61-0.37-1.06-0.37c-0.47,0-0.83,0.12-1.08,0.37
			c-0.25,0.25-0.38,0.6-0.38,1.06C473.02,265.54,473.15,265.89,473.4,266.14 M475.75,268.31h-2.57v12.12h2.57V268.31z
			 M459.25,280.43h2.92l2.98-4.54l2.99,4.54h2.92l-4.29-6.19l4.08-5.93h-2.92l-2.78,4.24l-2.76-4.24h-2.94l4.07,5.93L459.25,280.43z
			 M452.77,266.83c0.52-0.39,1.16-0.93,1.91-1.64c0.76-0.71,1.32-1.28,1.7-1.73v-0.23h-2.99c-0.26,0.45-0.61,0.98-1.05,1.61
			c-0.44,0.63-0.87,1.2-1.29,1.71v0.27H452.77z M454.63,270.82c0.47,0.51,0.71,1.27,0.72,2.27h-5.5c0.09-0.99,0.39-1.75,0.88-2.27
			c0.49-0.52,1.15-0.78,1.97-0.78C453.52,270.05,454.16,270.3,454.63,270.82 M455.38,280.47c0.64-0.12,1.28-0.34,1.91-0.64v-2.09
			c-0.71,0.31-1.37,0.54-1.99,0.67c-0.62,0.14-1.28,0.2-2,0.2c-1.09,0-1.93-0.32-2.53-0.95c-0.6-0.63-0.92-1.54-0.95-2.71h8.08
			v-1.39c0-1.7-0.46-3.04-1.39-4.01c-0.93-0.97-2.19-1.46-3.79-1.46c-1.72,0-3.08,0.57-4.07,1.7c-0.99,1.13-1.48,2.69-1.48,4.67
			c0,1.93,0.53,3.44,1.59,4.54c1.06,1.1,2.54,1.65,4.42,1.65C454,280.65,454.74,280.59,455.38,280.47 M436.68,280.43l4.81-13.36
			h0.09c-0.03,0.27-0.06,1.04-0.1,2.32c-0.04,1.28-0.06,2.32-0.06,3.11v7.92h2.52v-16.02h-3.7l-4.58,12.75h-0.07l-4.45-12.75h-3.69
			v16.02h2.38v-7.79c0-1.74-0.06-3.6-0.19-5.59h0.09l4.65,13.38H436.68z M410.62,278.24c-0.32-0.3-0.48-0.71-0.48-1.25
			c0-0.75,0.28-1.3,0.83-1.66c0.55-0.36,1.43-0.56,2.65-0.61l1.56-0.07v1.05c0,0.94-0.28,1.67-0.85,2.2s-1.32,0.78-2.25,0.78
			C411.42,278.68,410.94,278.53,410.62,278.24 M417.74,280.43v-8.16c0-1.44-0.39-2.5-1.18-3.17c-0.78-0.67-1.95-1.01-3.49-1.01
			c-0.69,0-1.43,0.09-2.21,0.27c-0.78,0.18-1.5,0.44-2.16,0.78l0.83,1.84c0.53-0.25,1.07-0.46,1.64-0.65
			c0.57-0.18,1.16-0.27,1.79-0.27c0.76,0,1.32,0.19,1.68,0.57c0.36,0.38,0.54,0.96,0.54,1.74v0.65l-2.09,0.07
			c-1.9,0.06-3.31,0.41-4.24,1.04c-0.93,0.64-1.39,1.58-1.39,2.83c0,1.18,0.33,2.09,1,2.73c0.67,0.64,1.6,0.97,2.79,0.97
			c0.93,0,1.69-0.13,2.28-0.4c0.59-0.27,1.18-0.77,1.76-1.51h0.09l0.51,1.69H417.74z M402.7,268.73c-0.65,0.42-1.17,1-1.57,1.72H401
			l-0.34-2.14h-2.02v12.12h2.57v-6.33c0-1.07,0.32-1.95,0.96-2.62c0.64-0.67,1.47-1.01,2.5-1.01c0.4,0,0.77,0.04,1.14,0.13l0.25-2.4
			c-0.34-0.07-0.76-0.11-1.28-0.11C404.04,268.09,403.35,268.31,402.7,268.73 M387.92,278.24c-0.32-0.3-0.48-0.71-0.48-1.25
			c0-0.75,0.28-1.3,0.83-1.66c0.55-0.36,1.43-0.56,2.65-0.61l1.56-0.07v1.05c0,0.94-0.28,1.67-0.85,2.2
			c-0.57,0.52-1.32,0.78-2.25,0.78C388.73,278.68,388.24,278.53,387.92,278.24 M395.05,280.43v-8.16c0-1.44-0.39-2.5-1.18-3.17
			c-0.79-0.67-1.95-1.01-3.49-1.01c-0.69,0-1.43,0.09-2.21,0.27c-0.78,0.18-1.5,0.44-2.16,0.78l0.83,1.84
			c0.53-0.25,1.07-0.46,1.64-0.65c0.57-0.18,1.16-0.27,1.79-0.27c0.76,0,1.32,0.19,1.68,0.57c0.36,0.38,0.54,0.96,0.54,1.74v0.65
			l-2.09,0.07c-1.9,0.06-3.31,0.41-4.24,1.04c-0.93,0.64-1.39,1.58-1.39,2.83c0,1.18,0.33,2.09,1,2.73c0.67,0.64,1.6,0.97,2.79,0.97
			c0.93,0,1.69-0.13,2.28-0.4c0.59-0.27,1.18-0.77,1.76-1.51h0.09l0.52,1.69H395.05z M379.27,271.24c0.48,0.7,0.72,1.73,0.72,3.09
			c0,1.35-0.24,2.39-0.72,3.12c-0.48,0.73-1.17,1.1-2.06,1.1c-1.06,0-1.82-0.33-2.29-0.99c-0.47-0.66-0.7-1.73-0.7-3.21v-0.38
			c0-1.32,0.24-2.27,0.71-2.87c0.47-0.6,1.22-0.9,2.24-0.9C378.09,270.2,378.79,270.55,379.27,271.24 M381.34,278.99
			c0.86-1.11,1.29-2.66,1.29-4.64c0-1.98-0.42-3.52-1.27-4.61c-0.84-1.1-2.02-1.64-3.53-1.64c-1.61,0-2.81,0.61-3.62,1.84h-0.13
			c-0.18-0.86-0.3-1.4-0.36-1.62h-2.08v17.51h2.57v-4.96c0-0.22-0.05-0.84-0.15-1.86h0.15c0.85,1.1,2.04,1.66,3.57,1.66
			C379.3,280.65,380.48,280.1,381.34,278.99 M361.74,272.53c0-2.96-1.45-4.44-4.36-4.44c-0.82,0-1.56,0.16-2.24,0.47
			c-0.67,0.31-1.19,0.76-1.56,1.34h-0.13l-0.36-1.59h-2.02v12.12h2.57v-6.04c0-1.51,0.25-2.59,0.76-3.23
			c0.5-0.64,1.3-0.96,2.39-0.96c0.82,0,1.42,0.23,1.79,0.69c0.38,0.46,0.56,1.16,0.56,2.09v7.45h2.59V272.53z M342.42,266.83
			c0.52-0.39,1.16-0.93,1.91-1.64c0.76-0.71,1.32-1.28,1.7-1.73v-0.23h-2.99c-0.26,0.45-0.6,0.98-1.05,1.61
			c-0.44,0.63-0.87,1.2-1.29,1.71v0.27H342.42z M340.03,271.27c0.49-0.72,1.27-1.07,2.35-1.07c2.06,0,3.09,1.38,3.09,4.15
			c0,2.8-1.02,4.2-3.07,4.2c-2.07,0-3.1-1.4-3.1-4.2C339.3,273.02,339.54,271.99,340.03,271.27 M346.58,269.79
			c-1.02-1.13-2.41-1.69-4.16-1.69c-1.83,0-3.26,0.55-4.26,1.66c-1.01,1.1-1.51,2.64-1.51,4.6c0,1.26,0.23,2.37,0.7,3.33
			c0.47,0.96,1.14,1.69,2.01,2.2c0.87,0.51,1.87,0.77,3,0.77c1.81,0,3.23-0.56,4.24-1.67c1.02-1.11,1.52-2.66,1.52-4.64
			C348.12,272.44,347.61,270.92,346.58,269.79 M331.33,266.14c0.25,0.25,0.61,0.38,1.08,0.38c0.45,0,0.81-0.13,1.06-0.38
			c0.25-0.25,0.38-0.6,0.38-1.04c0-0.46-0.13-0.81-0.38-1.06c-0.25-0.25-0.61-0.37-1.06-0.37c-0.47,0-0.83,0.12-1.08,0.37
			c-0.25,0.25-0.38,0.6-0.38,1.06C330.96,265.54,331.08,265.89,331.33,266.14 M333.68,268.31h-2.57v12.12h2.57V268.31z
			 M326.79,280.48c0.52-0.12,1.01-0.31,1.47-0.58v-2.25c-1.02,0.57-2.11,0.86-3.26,0.86c-1.01,0-1.77-0.34-2.3-1.03
			c-0.52-0.68-0.78-1.7-0.78-3.06c0-2.78,1.05-4.18,3.15-4.18c0.71,0,1.61,0.21,2.7,0.64l0.78-2.07c-1.02-0.48-2.17-0.71-3.45-0.71
			c-1.88,0-3.33,0.55-4.32,1.64c-1,1.1-1.5,2.66-1.5,4.7c0,2,0.48,3.54,1.43,4.61c0.95,1.07,2.35,1.61,4.18,1.61
			C325.63,280.65,326.26,280.6,326.79,280.48 M308.94,271.27c0.49-0.72,1.27-1.07,2.35-1.07c2.06,0,3.09,1.38,3.09,4.15
			c0,2.8-1.02,4.2-3.07,4.2c-2.07,0-3.1-1.4-3.1-4.2C308.21,273.02,308.46,271.99,308.94,271.27 M315.5,269.79
			c-1.02-1.13-2.41-1.69-4.17-1.69c-1.83,0-3.25,0.55-4.26,1.66c-1.01,1.1-1.51,2.64-1.51,4.6c0,1.26,0.23,2.37,0.7,3.33
			c0.47,0.96,1.14,1.69,2.01,2.2c0.87,0.51,1.87,0.77,3,0.77c1.81,0,3.23-0.56,4.24-1.67c1.02-1.11,1.52-2.66,1.52-4.64
			C317.04,272.44,316.53,270.92,315.5,269.79 M295.04,274.01c0-1.29,0.23-2.25,0.7-2.88c0.46-0.62,1.2-0.94,2.2-0.94
			c0.74,0,1.3,0.23,1.65,0.68c0.35,0.46,0.53,1.15,0.53,2.08v7.47h2.57v-7.9c0-1.5-0.33-2.61-0.99-3.34
			c-0.66-0.73-1.72-1.1-3.16-1.1c-0.84,0-1.59,0.17-2.24,0.5c-0.65,0.34-1.15,0.8-1.51,1.4h-0.18c-0.61-1.27-1.84-1.91-3.7-1.91
			c-0.77,0-1.47,0.16-2.11,0.47c-0.64,0.31-1.13,0.76-1.46,1.34h-0.13l-0.36-1.59h-2.02v12.12h2.57v-6.04c0-1.5,0.23-2.58,0.7-3.23
			c0.46-0.65,1.19-0.97,2.19-0.97c0.74,0,1.29,0.23,1.64,0.68c0.35,0.46,0.53,1.15,0.53,2.08v7.47h2.59V274.01z M273.77,271.27
			c0.49-0.72,1.27-1.07,2.35-1.07c2.06,0,3.09,1.38,3.09,4.15c0,2.8-1.02,4.2-3.07,4.2c-2.07,0-3.1-1.4-3.1-4.2
			C273.05,273.02,273.29,271.99,273.77,271.27 M280.33,269.79c-1.02-1.13-2.41-1.69-4.16-1.69c-1.83,0-3.25,0.55-4.26,1.66
			c-1.01,1.1-1.51,2.64-1.51,4.6c0,1.26,0.23,2.37,0.7,3.33c0.47,0.96,1.14,1.69,2.01,2.2c0.87,0.51,1.87,0.77,3,0.77
			c1.81,0,3.23-0.56,4.24-1.67c1.02-1.11,1.52-2.66,1.52-4.64C281.87,272.44,281.36,270.92,280.33,269.79 M265.5,268.73
			c-0.65,0.42-1.17,1-1.57,1.72h-0.13l-0.34-2.14h-2.02v12.12h2.58v-6.33c0-1.07,0.32-1.95,0.96-2.62c0.64-0.67,1.47-1.01,2.5-1.01
			c0.39,0,0.77,0.04,1.14,0.13l0.25-2.4c-0.34-0.07-0.76-0.11-1.28-0.11C266.84,268.09,266.15,268.31,265.5,268.73 M255.09,271.24
			c0.48,0.7,0.72,1.73,0.72,3.09c0,1.35-0.24,2.39-0.72,3.12c-0.48,0.73-1.17,1.1-2.06,1.1c-1.06,0-1.82-0.33-2.29-0.99
			c-0.47-0.66-0.7-1.73-0.7-3.21v-0.38c0-1.32,0.24-2.27,0.71-2.87c0.47-0.6,1.22-0.9,2.24-0.9
			C253.91,270.2,254.61,270.55,255.09,271.24 M257.16,278.99c0.86-1.11,1.29-2.66,1.29-4.64c0-1.98-0.42-3.52-1.27-4.61
			c-0.84-1.1-2.02-1.64-3.53-1.64c-1.61,0-2.81,0.61-3.62,1.84h-0.13c-0.18-0.86-0.3-1.4-0.36-1.62h-2.08v17.51h2.57v-4.96
			c0-0.22-0.05-0.84-0.15-1.86h0.15c0.85,1.1,2.04,1.66,3.57,1.66C255.12,280.65,256.3,280.1,257.16,278.99 M232.35,263.38
			l0.45,4.19l-4.12-1.18l-0.38,2.38l3.92,0.32l-2.53,3.41l2.25,1.17l1.63-3.7l1.82,3.7l2.18-1.17l-2.59-3.41l3.95-0.32l-0.31-2.38
			l-4.22,1.18l0.45-4.19H232.35z"/>
		<path class="st10" d="M500.92,184.56c-0.25-0.52-0.64-0.97-1.16-1.37c-0.53-0.4-1.35-0.82-2.48-1.28
			c-1.27-0.51-2.09-0.89-2.46-1.15c-0.38-0.26-0.56-0.56-0.56-0.92c0-0.63,0.58-0.94,1.75-0.94c0.65,0,1.3,0.1,1.93,0.3
			c0.63,0.2,1.31,0.45,2.03,0.76l1.19-2.85c-1.65-0.76-3.34-1.14-5.08-1.14c-1.83,0-3.24,0.35-4.24,1.05c-1,0.7-1.49,1.7-1.49,2.98
			c0,0.75,0.12,1.38,0.36,1.89c0.24,0.51,0.62,0.97,1.14,1.36c0.52,0.4,1.34,0.83,2.45,1.29c0.78,0.33,1.4,0.61,1.86,0.86
			c0.47,0.24,0.79,0.46,0.98,0.66c0.19,0.19,0.28,0.45,0.28,0.76c0,0.83-0.71,1.24-2.15,1.24c-0.7,0-1.51-0.12-2.42-0.35
			c-0.92-0.23-1.74-0.52-2.48-0.87v3.26c0.65,0.28,1.34,0.49,2.08,0.63c0.74,0.14,1.64,0.21,2.69,0.21c2.05,0,3.59-0.39,4.62-1.16
			c1.03-0.78,1.54-1.9,1.54-3.39C501.3,185.7,501.17,185.08,500.92,184.56 M484.98,190.71c0.78-0.17,1.52-0.42,2.21-0.77v-3.05
			c-0.85,0.4-1.65,0.69-2.43,0.87s-1.6,0.27-2.47,0.27c-1.12,0-1.99-0.32-2.61-0.94c-0.62-0.63-0.95-1.5-1-2.63H488v-1.91
			c0-2.05-0.57-3.66-1.71-4.82s-2.73-1.75-4.77-1.75c-2.14,0-3.81,0.66-5.02,1.99c-1.21,1.32-1.82,3.2-1.82,5.62
			c0,2.35,0.66,4.17,1.97,5.46c1.31,1.28,3.13,1.93,5.46,1.93C483.24,190.96,484.19,190.88,484.98,190.71 M483.54,179.58
			c0.49,0.53,0.75,1.28,0.76,2.26h-5.54c0.07-0.97,0.34-1.73,0.82-2.26c0.47-0.53,1.13-0.79,1.97-0.79
			C482.39,178.78,483.05,179.05,483.54,179.58 M469.12,176.72c-0.76,0.5-1.37,1.15-1.82,1.96h-0.19l-0.58-2.43h-2.99v14.46h3.95
			v-7.36c0-1.16,0.35-2.07,1.05-2.72s1.68-0.97,2.94-0.97c0.46,0,0.85,0.04,1.16,0.13l0.3-3.7c-0.35-0.08-0.8-0.12-1.33-0.12
			C470.71,175.97,469.88,176.22,469.12,176.72 M459.42,179.48c-0.57-1.13-1.38-2-2.44-2.6c-1.06-0.6-2.29-0.91-3.67-0.91
			c-2.23,0-3.97,0.66-5.2,1.97c-1.23,1.31-1.85,3.15-1.85,5.51c0,1.52,0.29,2.85,0.85,3.98s1.38,2.01,2.44,2.62
			c1.06,0.61,2.29,0.91,3.67,0.91c2.22,0,3.95-0.66,5.19-1.99c1.24-1.33,1.86-3.17,1.86-5.52
			C460.28,181.93,459.99,180.61,459.42,179.48 M450.98,180.22c0.46-0.71,1.22-1.07,2.28-1.07c1.06,0,1.82,0.36,2.29,1.07
			c0.47,0.72,0.7,1.79,0.7,3.22c0,1.44-0.23,2.52-0.69,3.25c-0.46,0.73-1.22,1.09-2.27,1.09c-1.06,0-1.83-0.37-2.3-1.1
			c-0.47-0.73-0.71-1.81-0.71-3.25C450.28,182.01,450.51,180.93,450.98,180.22 M435.74,190.6l-0.23,0.71
			c-0.29,0.86-0.7,1.51-1.22,1.93s-1.13,0.64-1.83,0.64c-0.56,0-1.08-0.06-1.55-0.17v3.13c0.65,0.15,1.32,0.22,2.01,0.22
			c1.39,0,2.6-0.38,3.64-1.13c1.04-0.75,1.84-1.88,2.4-3.39l6.12-16.31h-4.23l-2.68,8.13c-0.28,0.78-0.46,1.62-0.56,2.51h-0.08
			c-0.09-0.96-0.25-1.8-0.48-2.51l-2.73-8.13H430L435.74,190.6z M424.09,185.2c0,0.87-0.27,1.57-0.82,2.1
			c-0.55,0.53-1.28,0.79-2.19,0.79c-1.28,0-1.91-0.56-1.91-1.67c0-0.78,0.28-1.35,0.84-1.73c0.56-0.38,1.41-0.59,2.56-0.62
			l1.53-0.05V185.2z M428.01,190.71v-9.63c0-1.73-0.52-3.01-1.55-3.85c-1.03-0.85-2.52-1.27-4.46-1.27c-2.03,0-3.87,0.44-5.54,1.31
			l1.31,2.66c1.56-0.7,2.92-1.05,4.07-1.05c1.5,0,2.25,0.73,2.25,2.2v0.63l-2.51,0.08c-2.17,0.08-3.78,0.48-4.86,1.21
			c-1.07,0.73-1.61,1.86-1.61,3.4c0,1.47,0.4,2.6,1.2,3.39c0.8,0.79,1.89,1.19,3.28,1.19c1.13,0,2.05-0.16,2.75-0.49
			c0.7-0.32,1.39-0.9,2.05-1.74h0.1l0.76,1.97H428.01z M403.01,183.45c0-1.5,0.24-2.6,0.72-3.29c0.48-0.69,1.2-1.03,2.17-1.03
			c0.75,0,1.3,0.26,1.65,0.78c0.35,0.52,0.52,1.3,0.52,2.35v8.44h3.96v-9.43c0-1.85-0.42-3.2-1.26-4.04
			c-0.84-0.84-2.08-1.26-3.72-1.26c-0.95,0-1.8,0.19-2.55,0.56c-0.75,0.37-1.33,0.89-1.71,1.57h-0.35c-0.77-1.41-2.23-2.12-4.4-2.12
			c-0.95,0-1.79,0.19-2.52,0.56s-1.29,0.89-1.68,1.56h-0.22l-0.53-1.85h-3.01v14.46h3.94v-6.8c0-1.7,0.23-2.92,0.69-3.66
			c0.46-0.74,1.19-1.11,2.2-1.11c0.75,0,1.3,0.26,1.65,0.78c0.35,0.52,0.52,1.3,0.52,2.35v8.44h3.94V183.45z M379.68,184.56
			c-0.25-0.52-0.64-0.97-1.16-1.37c-0.53-0.4-1.35-0.82-2.48-1.28c-1.27-0.51-2.09-0.89-2.46-1.15c-0.38-0.26-0.56-0.56-0.56-0.92
			c0-0.63,0.58-0.94,1.75-0.94c0.65,0,1.3,0.1,1.93,0.3c0.63,0.2,1.31,0.45,2.03,0.76l1.19-2.85c-1.65-0.76-3.34-1.14-5.08-1.14
			c-1.83,0-3.24,0.35-4.24,1.05c-0.99,0.7-1.49,1.7-1.49,2.98c0,0.75,0.12,1.38,0.36,1.89s0.62,0.97,1.14,1.36
			c0.52,0.4,1.34,0.83,2.45,1.29c0.78,0.33,1.4,0.61,1.86,0.86c0.46,0.24,0.79,0.46,0.98,0.66c0.19,0.19,0.29,0.45,0.29,0.76
			c0,0.83-0.72,1.24-2.15,1.24c-0.7,0-1.51-0.12-2.42-0.35c-0.92-0.23-1.74-0.52-2.48-0.87v3.26c0.65,0.28,1.34,0.49,2.08,0.63
			c0.74,0.14,1.64,0.21,2.69,0.21c2.05,0,3.59-0.39,4.62-1.16c1.03-0.78,1.55-1.9,1.55-3.39
			C380.06,185.7,379.93,185.08,379.68,184.56 M361.99,185.2c0,0.87-0.27,1.57-0.82,2.1c-0.55,0.53-1.28,0.79-2.19,0.79
			c-1.28,0-1.91-0.56-1.91-1.67c0-0.78,0.28-1.35,0.84-1.73c0.56-0.38,1.41-0.59,2.56-0.62l1.53-0.05V185.2z M365.91,190.71v-9.63
			c0-1.73-0.52-3.01-1.55-3.85c-1.03-0.85-2.52-1.27-4.46-1.27c-2.03,0-3.87,0.44-5.54,1.31l1.31,2.66c1.56-0.7,2.92-1.05,4.07-1.05
			c1.5,0,2.25,0.73,2.25,2.2v0.63l-2.51,0.08c-2.16,0.08-3.78,0.48-4.86,1.21c-1.07,0.73-1.61,1.86-1.61,3.4
			c0,1.47,0.4,2.6,1.2,3.39c0.8,0.79,1.89,1.19,3.28,1.19c1.13,0,2.04-0.16,2.75-0.49c0.7-0.32,1.39-0.9,2.05-1.74h0.1l0.76,1.97
			H365.91z M347.53,176.72c-0.76,0.5-1.37,1.15-1.82,1.96h-0.19l-0.58-2.43h-2.99v14.46h3.94v-7.36c0-1.16,0.35-2.07,1.05-2.72
			c0.7-0.65,1.68-0.97,2.94-0.97c0.46,0,0.85,0.04,1.16,0.13l0.3-3.7c-0.35-0.08-0.8-0.12-1.33-0.12
			C349.12,175.97,348.29,176.22,347.53,176.72 M334.01,180.2c0.43,0.71,0.65,1.78,0.65,3.2c0,2.91-0.88,4.37-2.65,4.37
			c-1,0-1.73-0.34-2.19-1.01c-0.46-0.67-0.69-1.79-0.69-3.34V183c0.02-1.38,0.25-2.37,0.7-2.97c0.45-0.6,1.16-0.9,2.13-0.9
			C332.89,179.13,333.58,179.49,334.01,180.2 M336.07,190.07c0.84-0.6,1.48-1.46,1.93-2.6c0.45-1.14,0.68-2.48,0.68-4.02
			c0-2.35-0.48-4.18-1.45-5.5c-0.96-1.32-2.3-1.98-4.01-1.98c-1.81,0-3.18,0.72-4.1,2.15h-0.18l-0.56-1.88h-3.21v20.82h3.94v-5.86
			c0-0.19-0.07-0.89-0.21-2.1h0.21c0.97,1.23,2.3,1.85,4,1.85C334.26,190.96,335.24,190.67,336.07,190.07 M312.12,183.45
			c0-1.5,0.24-2.6,0.72-3.29c0.48-0.69,1.2-1.03,2.17-1.03c0.75,0,1.3,0.26,1.65,0.78c0.35,0.52,0.52,1.3,0.52,2.35v8.44h3.96v-9.43
			c0-1.85-0.42-3.2-1.26-4.04c-0.84-0.84-2.08-1.26-3.72-1.26c-0.95,0-1.8,0.19-2.55,0.56c-0.75,0.37-1.33,0.89-1.71,1.57h-0.35
			c-0.77-1.41-2.23-2.12-4.4-2.12c-0.95,0-1.79,0.19-2.52,0.56s-1.29,0.89-1.68,1.56h-0.22l-0.53-1.85h-3.01v14.46h3.95v-6.8
			c0-1.7,0.23-2.92,0.68-3.66c0.46-0.74,1.19-1.11,2.2-1.11c0.75,0,1.3,0.26,1.65,0.78c0.35,0.52,0.52,1.3,0.52,2.35v8.44h3.94
			V183.45z M295.07,179.48c-0.57-1.13-1.38-2-2.44-2.6c-1.06-0.6-2.28-0.91-3.67-0.91c-2.23,0-3.97,0.66-5.2,1.97
			c-1.23,1.31-1.85,3.15-1.85,5.51c0,1.52,0.29,2.85,0.85,3.98s1.38,2.01,2.44,2.62c1.06,0.61,2.29,0.91,3.67,0.91
			c2.22,0,3.94-0.66,5.19-1.99c1.24-1.33,1.86-3.17,1.86-5.52C295.92,181.93,295.63,180.61,295.07,179.48 M286.62,180.22
			c0.46-0.71,1.22-1.07,2.28-1.07c1.06,0,1.82,0.36,2.29,1.07c0.47,0.72,0.7,1.79,0.7,3.22c0,1.44-0.23,2.52-0.69,3.25
			c-0.46,0.73-1.22,1.09-2.27,1.09c-1.06,0-1.83-0.37-2.3-1.1c-0.47-0.73-0.7-1.81-0.7-3.25
			C285.92,182.01,286.15,180.93,286.62,180.22 M277.5,190.73c0.65-0.16,1.3-0.44,1.93-0.84v-3.38c-0.65,0.43-1.29,0.75-1.94,0.95
			c-0.65,0.2-1.35,0.3-2.11,0.3c-2.05,0-3.08-1.41-3.08-4.24c0-2.91,1.03-4.37,3.08-4.37c0.54,0,1.07,0.08,1.6,0.24
			c0.53,0.16,1.11,0.36,1.73,0.61l1.16-3.05c-1.33-0.65-2.83-0.98-4.5-0.98c-2.29,0-4.04,0.65-5.26,1.95
			c-1.22,1.3-1.84,3.18-1.84,5.63c0,4.94,2.25,7.41,6.75,7.41C276.02,190.96,276.85,190.89,277.5,190.73 M258.17,181.28
			c0-1.72-0.44-3.03-1.31-3.94c-0.87-0.91-2.15-1.36-3.83-1.36c-0.98,0-1.86,0.18-2.63,0.54c-0.77,0.36-1.38,0.89-1.82,1.58h-0.22
			l-0.53-1.85h-3.01v14.46h3.95v-6.8c0-1.71,0.24-2.93,0.74-3.67c0.49-0.74,1.29-1.11,2.39-1.11c0.81,0,1.4,0.26,1.77,0.78
			c0.37,0.52,0.56,1.3,0.56,2.35v8.44h3.94V181.28z M238.59,190.71c0.78-0.17,1.52-0.42,2.21-0.77v-3.05
			c-0.85,0.4-1.65,0.69-2.43,0.87s-1.6,0.27-2.47,0.27c-1.12,0-1.99-0.32-2.61-0.94c-0.62-0.63-0.95-1.5-1-2.63h9.32v-1.91
			c0-2.05-0.57-3.66-1.71-4.82s-2.73-1.75-4.77-1.75c-2.14,0-3.81,0.66-5.02,1.99c-1.21,1.32-1.82,3.2-1.82,5.62
			c0,2.35,0.65,4.17,1.97,5.46c1.31,1.28,3.13,1.93,5.46,1.93C236.85,190.96,237.81,190.88,238.59,190.71 M237.16,179.58
			c0.49,0.53,0.75,1.28,0.76,2.26h-5.53c0.07-0.97,0.34-1.73,0.82-2.26c0.47-0.53,1.13-0.79,1.96-0.79
			C236,178.78,236.67,179.05,237.16,179.58"/>
		<path class="st10" d="M482.59,214.42c0.88-2.19,2.33-3.29,4.37-3.29c2,0,3.45,1.1,4.35,3.29c0.91,2.19,1.36,5.8,1.36,10.83
			c0,4.97-0.45,8.55-1.34,10.75c-0.9,2.2-2.35,3.31-4.37,3.31c-2.05,0-3.52-1.09-4.38-3.26c-0.87-2.18-1.3-5.77-1.3-10.8
			S481.71,216.62,482.59,214.42 M497.67,209.51c-2.42-3.59-5.99-5.38-10.71-5.38c-4.86,0-8.45,1.71-10.78,5.14
			c-2.33,3.43-3.5,8.75-3.5,15.98c0,6.93,1.2,12.16,3.6,15.71c2.4,3.55,5.96,5.32,10.69,5.32c4.87,0,8.48-1.72,10.82-5.15
			c2.34-3.44,3.52-8.73,3.52-15.88C501.3,218.34,500.09,213.09,497.67,209.51 M449.85,214.42c0.88-2.19,2.33-3.29,4.37-3.29
			c2,0,3.45,1.1,4.36,3.29c0.91,2.19,1.36,5.8,1.36,10.83c0,4.97-0.45,8.55-1.34,10.75c-0.9,2.2-2.35,3.31-4.37,3.31
			c-2.05,0-3.51-1.09-4.38-3.26c-0.87-2.18-1.3-5.77-1.3-10.8S448.97,216.62,449.85,214.42 M464.93,209.51
			c-2.42-3.59-5.99-5.38-10.71-5.38c-4.85,0-8.45,1.71-10.78,5.14c-2.33,3.43-3.5,8.75-3.5,15.98c0,6.93,1.2,12.16,3.6,15.71
			c2.4,3.55,5.96,5.32,10.68,5.32c4.87,0,8.48-1.72,10.83-5.15c2.34-3.44,3.52-8.73,3.52-15.88
			C468.56,218.34,467.35,213.09,464.93,209.51 M426.07,245.23c0.86,0.83,2.07,1.25,3.64,1.25c1.53,0,2.73-0.43,3.59-1.28
			c0.86-0.85,1.29-2.01,1.29-3.49c0-1.53-0.42-2.71-1.28-3.53c-0.85-0.82-2.05-1.23-3.6-1.23c-1.61,0-2.83,0.4-3.67,1.2
			c-0.84,0.8-1.26,1.99-1.26,3.56C424.78,243.23,425.21,244.4,426.07,245.23 M400.75,214.42c0.88-2.19,2.33-3.29,4.37-3.29
			c2,0,3.45,1.1,4.36,3.29c0.91,2.19,1.36,5.8,1.36,10.83c0,4.97-0.45,8.55-1.34,10.75c-0.9,2.2-2.35,3.31-4.37,3.31
			c-2.05,0-3.51-1.09-4.38-3.26c-0.87-2.18-1.3-5.77-1.3-10.8S399.87,216.62,400.75,214.42 M415.83,209.51
			c-2.42-3.59-5.99-5.38-10.71-5.38c-4.85,0-8.45,1.71-10.78,5.14c-2.33,3.43-3.5,8.75-3.5,15.98c0,6.93,1.2,12.16,3.6,15.71
			c2.4,3.55,5.96,5.32,10.68,5.32c4.87,0,8.48-1.72,10.83-5.15c2.34-3.44,3.52-8.73,3.52-15.88
			C419.46,218.34,418.25,213.09,415.83,209.51 M368.01,214.42c0.88-2.19,2.33-3.29,4.37-3.29c2,0,3.45,1.1,4.36,3.29
			c0.91,2.19,1.36,5.8,1.36,10.83c0,4.97-0.45,8.55-1.34,10.75c-0.9,2.2-2.35,3.31-4.37,3.31c-2.05,0-3.51-1.09-4.38-3.26
			c-0.87-2.18-1.3-5.77-1.3-10.8S367.13,216.62,368.01,214.42 M383.09,209.51c-2.42-3.59-5.99-5.38-10.71-5.38
			c-4.85,0-8.45,1.71-10.78,5.14c-2.33,3.43-3.5,8.75-3.5,15.98c0,6.93,1.2,12.16,3.6,15.71c2.4,3.55,5.96,5.32,10.68,5.32
			c4.87,0,8.48-1.72,10.83-5.15c2.34-3.44,3.51-8.73,3.51-15.88C386.72,218.34,385.51,213.09,383.09,209.51 M343.22,211.69
			c0.93,0.75,1.4,1.76,1.4,3.05c0,1.18-0.37,2.21-1.09,3.11c-0.73,0.9-2.01,1.77-3.84,2.63c-1.89-0.93-3.19-1.84-3.91-2.73
			c-0.72-0.89-1.08-1.89-1.08-3.01c0-1.27,0.45-2.28,1.36-3.04c0.91-0.76,2.1-1.13,3.57-1.13
			C341.09,210.57,342.29,210.95,343.22,211.69 M339.27,227.88c2.37,1.23,4.08,2.39,5.14,3.49c1.06,1.09,1.58,2.26,1.58,3.51
			c0,1.51-0.53,2.73-1.6,3.66c-1.06,0.92-2.67,1.39-4.82,1.39c-1.94,0-3.47-0.45-4.59-1.34c-1.12-0.9-1.68-2.15-1.68-3.75
			C333.31,232.03,335.29,229.71,339.27,227.88 M330.2,206.96c-2.43,1.81-3.64,4.18-3.64,7.11c0,2,0.51,3.84,1.54,5.52
			c1.03,1.68,2.71,3.26,5.04,4.73c-2.74,1.38-4.74,2.98-5.98,4.79c-1.24,1.81-1.86,3.88-1.86,6.22c0,3.49,1.28,6.19,3.84,8.09
			c2.56,1.91,6.08,2.86,10.56,2.86c4.29,0,7.76-1.02,10.39-3.07c2.63-2.04,3.95-4.75,3.95-8.11c0-2.13-0.67-4.08-2-5.87
			s-3.53-3.5-6.6-5.14c2.58-1.29,4.44-2.75,5.6-4.38c1.16-1.63,1.74-3.5,1.74-5.59c0-3.02-1.2-5.43-3.6-7.21
			c-2.4-1.78-5.56-2.67-9.48-2.67C335.79,204.24,332.62,205.15,330.2,206.96 M290.04,213.43v6.58c-1.27-0.56-2.19-1.11-2.76-1.64
			c-0.57-0.53-0.85-1.21-0.85-2.03C286.43,214.75,287.64,213.78,290.04,213.43 M293.88,236.65v-6.97c1.27,0.58,2.22,1.14,2.86,1.68
			c0.63,0.54,0.95,1.2,0.95,1.99C297.69,235.12,296.42,236.22,293.88,236.65 M305.04,228.61c-0.72-1.23-1.85-2.36-3.39-3.39
			c-1.54-1.03-4.13-2.24-7.77-3.64v-8.26c3.06,0.26,6.05,0.99,8.96,2.18l2.63-6.55c-3.45-1.53-7.32-2.39-11.6-2.58v-4.17h-3.84v4.28
			c-3.79,0.37-6.74,1.43-8.86,3.18c-2.12,1.75-3.18,3.97-3.18,6.68c0,2.52,0.77,4.63,2.31,6.34c1.54,1.71,4.16,3.29,7.86,4.75
			l1.88,0.73v8.68c-1.79-0.11-3.83-0.48-6.12-1.09c-2.29-0.62-4.24-1.33-5.87-2.13v7.39c3.43,1.51,7.43,2.32,11.99,2.41v5.63h3.84
			v-5.74c3.87-0.35,6.87-1.43,9.02-3.24c2.15-1.8,3.22-4.19,3.22-7.16C306.12,231.28,305.76,229.84,305.04,228.61 M247.74,233.79
			c0,1.89-0.59,3.4-1.78,4.54c-1.19,1.14-2.77,1.71-4.75,1.71c-2.76,0-4.15-1.2-4.15-3.61c0-1.68,0.61-2.93,1.82-3.75
			c1.21-0.82,3.06-1.27,5.55-1.34l3.3-0.11V233.79z M256.22,245.72v-20.87c0-3.73-1.12-6.52-3.36-8.35
			c-2.24-1.83-5.46-2.74-9.66-2.74c-4.39,0-8.38,0.94-11.99,2.83l2.83,5.77c3.38-1.51,6.32-2.27,8.82-2.27
			c3.25,0,4.87,1.59,4.87,4.76v1.37l-5.43,0.17c-4.69,0.17-8.19,1.04-10.52,2.62c-2.32,1.58-3.49,4.03-3.49,7.35
			c0,3.17,0.86,5.62,2.59,7.34c1.73,1.72,4.09,2.58,7.1,2.58c2.45,0,4.43-0.35,5.95-1.05c1.52-0.7,3-1.96,4.44-3.77h0.22l1.65,4.26
			H256.22z"/>
	</g>
</g>
<g id="DESIGNED_BY_FREEPIK">
</g>
</svg>
