<?xml version="1.0" encoding="utf-8"?>
<!-- Generator: Adobe Illustrator 24.0.0, SVG Export Plug-In . SVG Version: 6.00 Build 0)  -->
<svg version="1.1"
	 id="Layer_1" inkscape:version="0.48.1 " sodipodi:docname="AJAX.svg" xmlns:cc="http://creativecommons.org/ns#" xmlns:dc="http://purl.org/dc/elements/1.1/" xmlns:inkscape="http://www.inkscape.org/namespaces/inkscape" xmlns:rdf="http://www.w3.org/1999/02/22-rdf-syntax-ns#" xmlns:sodipodi="http://sodipodi.sourceforge.net/DTD/sodipodi-0.dtd" xmlns:svg="http://www.w3.org/2000/svg"
	 xmlns="http://www.w3.org/2000/svg" xmlns:xlink="http://www.w3.org/1999/xlink" x="0px" y="0px" viewBox="0 0 229.7 70.4"
	 style="enable-background:new 0 0 229.7 70.4;" xml:space="preserve">
<style type="text/css">
	.st0{fill:#FF6600;}
	.st1{fill:#652C8F;}
</style>
<g id="g15">
	<g id="g17">
		<polygon id="polygon19" class="st0" points="171,67.9 190.2,46.4 171,24.8 191.3,24.8 200.8,35.3 209.9,24.8 229.5,24.8 
			210.4,46.3 229.7,67.9 209.4,67.9 200,57.3 190.7,67.9 		"/>
		<polygon id="polygon21" class="st0" points="171,15.1 149.3,15.1 149.3,24.8 171,24.8 171,39.4 149.3,39.4 149.3,52.7 171,52.7 
			171,67.9 133.3,67.9 133.3,0 171,0 		"/>
	</g>
	<path id="path23" inkscape:connector-curvature="0" class="st1" d="M117.4,0v27.8h-0.2c-3.5-4-7.9-5.5-13-5.5
		c-10.5,0-18.3,7.1-21.1,16.5C80,28.5,71.9,22.1,59.8,22.1c-9.8,0-17.5,4.4-21.6,11.6v-8.9H18v-9.7h22.1V0H0v67.9h18V39.4h18
		c-0.5,2.1-0.8,4.3-0.8,6.7c0,14.2,10.8,24.1,24.6,24.1c11.6,0,19.3-5.5,23.3-15.4H67.7c-2.1,3-3.7,3.9-7.9,3.9c-4.8,0-9-4.2-9-9.2
		h31.5c1.4,11.3,10.1,21,22.2,21c5.2,0,9.9-2.6,12.8-6.9h0.2v4.4h15.9V0H117.4z M51.3,39.6c1-4.3,4.3-7.1,8.5-7.1
		c4.6,0,7.8,2.7,8.6,7.1C68.8,39.6,51.3,39.6,51.3,39.6z M107.8,57.6c-5.9,0-9.5-5.5-9.5-11.2c0-6.1,3.2-12,9.5-12
		c6.6,0,9.2,5.9,9.2,12C117,52.2,114.2,57.6,107.8,57.6z"/>
</g>
</svg>
