<?xml version="1.0" encoding="utf-8"?>
<!-- Generator: Adobe Illustrator 24.0.0, SVG Export Plug-In . SVG Version: 6.00 Build 0)  -->
<svg version="1.1" id="Capa_1" xmlns="http://www.w3.org/2000/svg" xmlns:xlink="http://www.w3.org/1999/xlink" x="0px" y="0px"
	 viewBox="0 0 200 185.58" style="enable-background:new 0 0 200 185.58;" xml:space="preserve">
<style type="text/css">
	.st0{fill:#2D3277;}
	.st1{fill:#009EE3;}
	.st2{fill:#FFFFFF;}
</style>
<g>
	<path class="st0" d="M163.32,41.33c0-22.85-28.39-41.47-63.41-41.47c-35.02,0-63.41,18.63-63.41,41.47c0,0.59-0.01,2.22-0.01,2.43
		C36.5,68,61.31,87.63,99.9,87.63c38.83,0,63.42-19.63,63.42-43.87C163.32,42.92,163.32,42.43,163.32,41.33z"/>
	<path class="st1" d="M160.89,41.31c0,21.54-27.3,39-60.97,39c-33.67,0-60.97-17.46-60.97-39c0-21.54,27.3-39,60.97-39
		C133.6,2.31,160.89,19.77,160.89,41.31z"/>
	<path class="st2" d="M79.68,29.01c-0.03,0.06-0.64,0.69-0.25,1.2c0.96,1.23,3.93,1.93,6.94,1.26c1.79-0.4,4.08-2.23,6.3-3.99
		c2.41-1.91,4.8-3.83,7.2-4.59c2.54-0.81,4.17-0.46,5.25-0.14c1.18,0.35,2.57,1.13,4.78,2.79c4.17,3.14,20.95,17.78,23.84,20.31
		c2.33-1.05,12.71-5.52,26.81-8.63c-1.22-7.52-5.8-14.39-12.73-20.02c-9.66,4.06-21.47,6.18-33.02,0.54
		c-0.06-0.02-6.31-2.98-12.47-2.84C93.17,15.11,89.2,19.08,85,23.28L79.68,29.01z"/>
	<path class="st2" d="M133.07,47.44c-0.2-0.18-19.72-17.26-24.15-20.59c-2.56-1.92-3.98-2.41-5.48-2.6
		c-0.78-0.1-1.85,0.04-2.61,0.25c-2.06,0.56-4.75,2.36-7.14,4.25c-2.47,1.97-4.81,3.83-6.97,4.31c-2.77,0.62-6.14-0.11-7.68-1.15
		c-0.62-0.42-1.06-0.9-1.27-1.4c-0.57-1.32,0.48-2.37,0.65-2.55l5.39-5.83c0.63-0.62,1.26-1.25,1.9-1.87
		c-1.74,0.23-3.35,0.67-4.91,1.11c-1.95,0.55-3.83,1.07-5.73,1.07c-0.79,0-5.04-0.7-5.85-0.91c-4.88-1.33-9.16-2.63-15.55-5.62
		c-7.66,5.7-12.78,12.83-14.26,20.69c1.1,0.29,2.87,0.82,3.62,0.98c17.34,3.86,22.73,7.83,23.71,8.65c1.06-1.18,2.59-1.93,4.3-1.93
		c1.92,0,3.65,0.97,4.7,2.46c0.99-0.78,2.36-1.46,4.13-1.45c0.8,0,1.64,0.15,2.48,0.43c1.96,0.67,2.97,1.97,3.49,3.15
		c0.66-0.3,1.46-0.52,2.41-0.51c0.93,0,1.9,0.21,2.88,0.64c3.2,1.37,3.69,4.51,3.4,6.88c0.23-0.03,0.46-0.04,0.69-0.04
		c3.79,0,6.87,3.08,6.87,6.87c0,1.17-0.3,2.28-0.82,3.25c1.03,0.58,3.66,1.89,5.97,1.6c1.84-0.23,2.54-0.86,2.79-1.22
		c0.17-0.24,0.35-0.53,0.18-0.73l-4.89-5.43c0,0-0.81-0.76-0.54-1.06c0.28-0.3,0.77,0.13,1.13,0.43c2.49,2.08,5.53,5.22,5.53,5.22
		c0.05,0.03,0.25,0.43,1.38,0.63c0.97,0.17,2.68,0.07,3.87-0.9c0.3-0.25,0.6-0.55,0.85-0.87c-0.02,0.02-0.04,0.04-0.06,0.04
		c1.25-1.6-0.14-3.22-0.14-3.22l-5.71-6.41c0,0-0.82-0.76-0.54-1.06c0.25-0.26,0.77,0.13,1.13,0.43c1.81,1.51,4.36,4.08,6.81,6.47
		c0.48,0.35,2.63,1.68,5.48-0.19c1.73-1.13,2.08-2.53,2.03-3.58c-0.12-1.39-1.21-2.38-1.21-2.38l-7.8-7.84c0,0-0.82-0.7-0.53-1.06
		c0.24-0.3,0.77,0.13,1.12,0.43c2.48,2.08,9.21,8.25,9.21,8.25c0.1,0.07,2.42,1.72,5.29-0.11c1.03-0.66,1.68-1.65,1.74-2.8
		C134.48,48.63,133.07,47.44,133.07,47.44z"/>
	<path class="st2" d="M95.23,57.39c-1.21-0.01-2.53,0.7-2.71,0.6c-0.1-0.06,0.07-0.55,0.19-0.83c0.12-0.28,1.71-5.07-2.17-6.74
		c-2.97-1.28-4.79,0.16-5.41,0.81c-0.16,0.17-0.24,0.16-0.26-0.06c-0.06-0.86-0.45-3.2-3.01-3.98c-3.67-1.12-6.02,1.44-6.62,2.36
		c-0.27-2.09-2.03-3.71-4.2-3.71c-2.35,0-4.26,1.9-4.26,4.25c0,2.35,1.9,4.26,4.25,4.26c1.14,0,2.18-0.45,2.94-1.19
		c0.02,0.02,0.03,0.06,0.02,0.14c-0.18,1.05-0.51,4.87,3.5,6.43c1.61,0.62,2.97,0.16,4.1-0.63c0.34-0.24,0.39-0.14,0.34,0.18
		c-0.14,0.98,0.04,3.09,2.99,4.29c2.25,0.91,3.58-0.02,4.45-0.83c0.38-0.35,0.48-0.29,0.5,0.24c0.11,2.85,2.47,5.1,5.34,5.11
		c2.96,0,5.36-2.39,5.36-5.34C100.59,59.78,98.19,57.42,95.23,57.39z"/>
	<path class="st0" d="M133.83,45.4c-6.01-5.25-19.92-17.33-23.68-20.16c-2.15-1.62-3.62-2.47-4.91-2.86
		c-0.58-0.18-1.38-0.37-2.41-0.38c-0.96,0-1.99,0.17-3.06,0.52c-2.43,0.77-4.86,2.7-7.2,4.56l-0.12,0.1
		c-2.18,1.74-4.44,3.53-6.15,3.91c-0.75,0.17-1.51,0.25-2.28,0.25c-1.91,0-3.63-0.55-4.28-1.38c-0.11-0.14-0.04-0.35,0.21-0.67
		l0.03-0.04l5.29-5.7c4.14-4.14,8.06-8.06,17.07-8.26c0.15,0,0.3-0.01,0.45-0.01c5.61,0,11.22,2.51,11.85,2.81
		c5.26,2.57,10.69,3.87,16.14,3.87c5.69,0,11.55-1.41,17.72-4.25c-0.69-0.58-1.41-1.14-2.14-1.7c-5.42,2.35-10.58,3.54-15.57,3.53
		c-5.09,0-10.17-1.23-15.11-3.63c-0.26-0.12-6.45-3.04-12.89-3.05c-0.17,0-0.34,0-0.51,0.01c-7.57,0.18-11.83,2.86-14.7,5.22
		c-2.79,0.07-5.19,0.74-7.34,1.34c-1.91,0.53-3.56,0.99-5.17,0.99c-0.66,0-1.86-0.06-1.96-0.07c-1.85-0.06-11.17-2.34-18.59-5.15
		c-0.76,0.54-1.49,1.09-2.19,1.65c7.75,3.18,17.17,5.63,20.15,5.82c0.83,0.05,1.71,0.15,2.59,0.15c1.97,0,3.93-0.55,5.83-1.08
		c1.12-0.31,2.36-0.66,3.66-0.91c-0.35,0.34-0.69,0.69-1.04,1.04l-5.38,5.82c-0.42,0.43-1.34,1.57-0.74,2.97
		c0.24,0.57,0.73,1.11,1.41,1.57c1.28,0.86,3.57,1.45,5.71,1.45c0.81,0,1.57-0.08,2.28-0.24c2.25-0.5,4.62-2.39,7.12-4.38
		c1.99-1.58,4.83-3.6,7-4.19c0.61-0.17,1.35-0.27,1.95-0.27c0.18,0,0.35,0.01,0.5,0.03c1.43,0.18,2.82,0.67,5.3,2.53
		c4.41,3.32,23.94,20.4,24.13,20.57c0.01,0.01,1.26,1.09,1.17,2.87c-0.05,1-0.6,1.88-1.56,2.49c-0.83,0.53-1.69,0.8-2.56,0.8
		c-1.31,0-2.2-0.61-2.26-0.66c-0.07-0.06-6.76-6.19-9.22-8.26c-0.39-0.32-0.77-0.62-1.16-0.62c-0.21,0-0.39,0.09-0.51,0.24
		c-0.39,0.48,0.05,1.14,0.56,1.57l7.82,7.86c0.01,0.01,0.97,0.91,1.08,2.12c0.06,1.3-0.56,2.39-1.86,3.24
		c-0.92,0.61-1.86,0.92-2.77,0.92c-1.2,0-2.04-0.55-2.23-0.68l-1.12-1.1c-2.05-2.02-4.16-4.1-5.71-5.39
		c-0.38-0.31-0.78-0.6-1.16-0.6c-0.19,0-0.36,0.07-0.49,0.21c-0.18,0.2-0.3,0.55,0.14,1.13c0.18,0.24,0.39,0.44,0.39,0.44l5.7,6.41
		c0.05,0.06,1.18,1.4,0.13,2.73l-0.2,0.26c-0.17,0.19-0.36,0.36-0.53,0.51c-0.97,0.8-2.27,0.88-2.79,0.88
		c-0.28,0-0.54-0.02-0.77-0.07c-0.56-0.1-0.94-0.26-1.12-0.47l-0.07-0.07c-0.31-0.32-3.19-3.26-5.56-5.24
		c-0.31-0.26-0.7-0.59-1.11-0.59c-0.2,0-0.38,0.08-0.52,0.23c-0.47,0.52,0.24,1.29,0.53,1.57l4.86,5.36
		c-0.01,0.05-0.07,0.16-0.18,0.33c-0.17,0.24-0.76,0.83-2.53,1.05c-0.21,0.03-0.43,0.04-0.65,0.04c-1.82,0-3.76-0.88-4.76-1.41
		c0.46-0.96,0.69-2.02,0.69-3.08c0-4-3.25-7.26-7.25-7.26c-0.09,0-0.18,0-0.26,0.01c0.13-1.83-0.13-5.29-3.68-6.81
		C90.28,48.23,89.26,48,88.26,48c-0.78,0-1.52,0.13-2.22,0.4c-0.74-1.43-1.96-2.47-3.55-3.02c-0.88-0.31-1.76-0.46-2.6-0.46
		c-1.48,0-2.84,0.44-4.05,1.3c-1.16-1.45-2.92-2.3-4.77-2.3c-1.62,0-3.18,0.65-4.33,1.79c-1.51-1.16-7.52-4.97-23.6-8.62
		c-0.78-0.18-2.57-0.69-3.66-1.01c-0.18,0.87-0.32,1.75-0.41,2.64c0,0,2.96,0.71,3.55,0.84c16.42,3.65,21.85,7.44,22.77,8.16
		c-0.31,0.75-0.47,1.55-0.47,2.36c0,3.39,2.76,6.16,6.15,6.16c0.38,0,0.76-0.03,1.13-0.1c0.51,2.5,2.15,4.39,4.64,5.36
		c0.73,0.28,1.47,0.42,2.19,0.42c0.47,0,0.94-0.06,1.4-0.18c0.46,1.17,1.5,2.63,3.82,3.57c0.81,0.33,1.63,0.5,2.42,0.5
		c0.65,0,1.28-0.11,1.88-0.33c1.11,2.71,3.76,4.5,6.71,4.5c1.95,0,3.83-0.79,5.2-2.2c1.17,0.65,3.65,1.83,6.14,1.83
		c0.32,0,0.63-0.02,0.93-0.06c2.48-0.31,3.64-1.28,4.17-2.04c0.1-0.13,0.18-0.27,0.26-0.42c0.59,0.17,1.23,0.31,1.97,0.31
		c1.35,0,2.66-0.46,3.97-1.42c1.29-0.93,2.21-2.27,2.34-3.41c0-0.02,0-0.03,0.01-0.05c0.44,0.09,0.88,0.14,1.33,0.14
		c1.4,0,2.77-0.43,4.08-1.29c2.53-1.66,2.97-3.83,2.93-5.24c0.44,0.09,0.9,0.14,1.34,0.14c1.31,0,2.6-0.39,3.82-1.18
		c1.57-1,2.51-2.54,2.66-4.32c0.1-1.21-0.2-2.44-0.84-3.49c4.24-1.83,13.93-5.36,25.33-7.93c-0.07-0.88-0.2-1.76-0.35-2.63
		C146.7,39.79,136.4,44.25,133.83,45.4z M95.23,67.7c-2.68,0-4.86-2.09-4.96-4.74c-0.01-0.23-0.03-0.83-0.54-0.83
		c-0.21,0-0.39,0.13-0.6,0.32c-0.59,0.55-1.34,1.1-2.44,1.1c-0.5,0-1.04-0.12-1.6-0.35c-2.83-1.15-2.87-3.09-2.75-3.87
		c0.03-0.21,0.04-0.43-0.1-0.59l-0.17-0.16h-0.18c-0.14,0-0.29,0.06-0.49,0.2c-0.82,0.57-1.6,0.85-2.4,0.85
		c-0.44,0-0.89-0.09-1.34-0.26c-3.73-1.45-3.43-4.97-3.25-6.03c0.03-0.21-0.03-0.38-0.16-0.49l-0.26-0.22l-0.25,0.24
		c-0.73,0.7-1.68,1.08-2.67,1.08c-2.13,0-3.87-1.74-3.87-3.87c0-2.13,1.74-3.87,3.87-3.87c1.93,0,3.57,1.45,3.82,3.38L75,50.63
		l0.57-0.88c0.06-0.1,1.63-2.47,4.5-2.46c0.55,0,1.11,0.09,1.68,0.26c2.29,0.7,2.68,2.78,2.74,3.64c0.04,0.5,0.4,0.53,0.47,0.53
		c0.2,0,0.34-0.13,0.45-0.23c0.43-0.45,1.37-1.2,2.85-1.2c0.67,0,1.39,0.16,2.13,0.48c3.64,1.56,1.99,6.19,1.97,6.24
		c-0.31,0.77-0.32,1.11-0.03,1.3l0.14,0.07h0.11c0.17,0,0.37-0.07,0.71-0.19c0.5-0.17,1.24-0.43,1.94-0.43h0
		c2.74,0.03,4.97,2.26,4.97,4.97C100.21,65.48,97.97,67.7,95.23,67.7z"/>
	<path class="st0" d="M196.3,112.41c-2.29-2.87-5.76-4.3-10.43-4.3c-4.66,0-8.13,1.43-10.42,4.3c-2.29,2.86-3.44,6.25-3.44,10.16
		c0,3.98,1.15,7.38,3.44,10.21c2.29,2.82,5.76,4.24,10.42,4.24c4.66,0,8.14-1.41,10.43-4.24c2.29-2.83,3.43-6.23,3.43-10.21
		C199.73,118.66,198.59,115.27,196.3,112.41z M190.63,128.85c-1.11,1.47-2.7,2.21-4.78,2.21c-2.07,0-3.67-0.74-4.79-2.21
		c-1.12-1.47-1.68-3.57-1.68-6.29c0-2.71,0.56-4.81,1.68-6.27c1.12-1.47,2.72-2.2,4.79-2.2c2.08,0,3.67,0.73,4.78,2.2
		c1.11,1.47,1.67,3.56,1.67,6.27C192.29,125.28,191.74,127.38,190.63,128.85z"/>
	<path class="st0" d="M137.8,110.01c-2.32-1.18-4.98-1.77-7.97-1.77c-4.6,0-7.84,1.2-9.73,3.59c-1.19,1.53-1.85,3.49-2.01,5.87h6.87
		c0.17-1.05,0.51-1.88,1.01-2.5c0.71-0.83,1.91-1.25,3.61-1.25c1.52,0,2.67,0.21,3.46,0.64c0.78,0.42,1.18,1.19,1.18,2.31
		c0,0.92-0.51,1.59-1.53,2.02c-0.57,0.25-1.52,0.46-2.85,0.62l-2.43,0.3c-2.76,0.35-4.86,0.94-6.28,1.75c-2.6,1.5-3.9,3.91-3.9,7.26
		c0,2.58,0.81,4.57,2.42,5.98c1.61,1.41,3.66,2,6.14,2.11c15.53,0.69,15.35-8.18,15.49-10.03V116.7
		C141.29,113.42,140.12,111.19,137.8,110.01z M134.2,125.5c-0.05,2.38-0.73,4.02-2.04,4.92c-1.31,0.9-2.74,1.35-4.29,1.35
		c-0.98,0-1.81-0.27-2.5-0.81c-0.68-0.54-1.02-1.42-1.02-2.63c0-1.36,0.56-2.37,1.68-3.02c0.66-0.38,1.75-0.71,3.27-0.97l1.62-0.3
		c0.81-0.15,1.44-0.32,1.91-0.49c0.47-0.17,0.92-0.4,1.38-0.68V125.5z"/>
	<path class="st0" d="M102.4,114.32c1.77,0,3.08,0.55,3.92,1.64c0.58,0.81,0.94,1.72,1.08,2.74h7.66c-0.42-3.86-1.77-6.56-4.06-8.09
		c-2.29-1.52-5.22-2.29-8.81-2.29c-4.22,0-7.53,1.3-9.92,3.88c-2.4,2.59-3.6,6.21-3.6,10.86c0,4.12,1.09,7.48,3.26,10.06
		c2.17,2.59,5.56,3.88,10.16,3.88c4.6,0,8.08-1.55,10.42-4.65c1.47-1.92,2.29-3.96,2.47-6.12h-7.63c-0.16,1.43-0.6,2.59-1.34,3.48
		c-0.74,0.89-1.98,1.34-3.73,1.34c-2.47,0-4.15-1.13-5.05-3.39c-0.49-1.21-0.74-2.8-0.74-4.79c0-2.08,0.25-3.75,0.74-5.01
		C98.15,115.51,99.88,114.32,102.4,114.32z"/>
	<path class="st0" d="M86.62,108.33c-15.73,0-14.8,13.93-14.8,13.93v14.15h7.14v-13.27c0-2.17,0.28-3.78,0.82-4.83
		c0.98-1.85,2.89-2.79,5.75-2.79c0.22,0,0.5,0.01,0.85,0.03c0.35,0.02,0.74,0.05,1.2,0.1v-7.26c-0.32-0.02-0.52-0.03-0.61-0.04
		C86.87,108.33,86.75,108.33,86.62,108.33z"/>
	<path class="st0" d="M60.4,129.01c-0.3,0.43-0.62,0.8-0.98,1.08c-1.01,0.83-2.38,1.08-3.99,1.08c-1.53,0-2.72-0.23-3.8-0.91
		c-1.78-1.09-2.78-2.95-2.89-5.67h19.75c0.03-2.34-0.05-4.13-0.24-5.38c-0.33-2.12-1.05-4-2.16-5.61c-1.23-1.83-2.8-3.16-4.69-4.01
		c-1.89-0.84-4.02-1.27-6.38-1.27c-3.98,0-7.21,1.25-9.7,3.76c-2.49,2.51-3.74,6.11-3.74,10.81c0,5.02,1.38,8.63,4.14,10.86
		c2.76,2.22,5.94,3.34,9.55,3.34c4.37,0,7.77-1.32,10.2-3.96c1.31-1.39,2.13-2.76,2.48-4.12H60.4z M50.8,115.72
		c1-1.03,2.41-1.55,4.23-1.55c1.67,0,3.08,0.48,4.21,1.46c1.13,0.97,1.76,2.4,1.89,4.28H48.91C49.17,118.15,49.8,116.75,50.8,115.72
		z"/>
	<path class="st0" d="M38.73,136.4h-6.52v-16.42c0-1.5-0.5-5.07-4.8-5.07c-2.87,0-4.94,2.07-4.94,5.07v16.42h-6.53v-16.42
		c0-1.5-0.44-5.07-4.74-5.07c-2.92,0-4.94,2.07-4.94,5.07v16.42h-6.52v-16.26c0-6.78,4.5-11.9,11.47-11.9
		c3.46,0,6.28,1.45,8.11,3.78c1.92-2.33,4.79-3.78,8.11-3.78c7.12,0,11.32,4.92,11.32,11.9V136.4z"/>
	<path class="st0" d="M169.89,99.75c0,0-7.19-0.77-7.19,5.01l-0.01,7.65c-0.8-1.28-1.83-2.28-3.11-3c-1.27-0.72-2.73-1.08-4.38-1.08
		c-3.57,0-6.41,1.33-8.54,3.98c-2.13,2.66-3.2,6.48-3.2,11.11c0,4.01,1.08,7.31,3.25,9.87c2.16,2.56,6.41,3.68,10.18,3.68
		c13.14,0,12.99-11.27,12.99-11.27L169.89,99.75z M161.33,128.91c-1.04,1.49-2.57,2.24-4.58,2.24c-2.01,0-3.51-0.75-4.49-2.25
		c-0.99-1.5-1.48-3.69-1.48-6.19c0-2.32,0.48-4.27,1.45-5.83c0.97-1.57,2.49-2.35,4.56-2.35c1.36,0,2.55,0.43,3.58,1.29
		c1.67,1.43,2.51,3.99,2.51,7.3C162.9,125.49,162.37,127.42,161.33,128.91z"/>
	<path class="st1" d="M51.68,179.55c0,0.97-0.35,1.8-1.06,2.49c-0.7,0.69-1.54,1.04-2.52,1.04h-3.57v-24.85
		c0-4.83,1.63-7.86,4.31-9.9c1.77-1.35,4.41-2.64,9.36-2.64c3.34,0,7.25,1.3,9.36,3.87c2.37,2.9,3.36,6.12,3.36,10.34
		c0,4.36-1.05,7.88-3.15,10.58c-2.1,2.63-4.8,3.94-8.1,3.94c-1.75,0-3.29-0.31-4.62-0.93c-1.4-0.69-2.52-1.77-3.36-3.22V179.55z
		 M63.66,160.21c0-2.7-0.52-4.77-1.58-6.22c-1.05-1.45-2.56-2.18-4.52-2.18c-1.89,0-3.36,0.73-4.42,2.18
		c-0.98,1.32-1.46,3.39-1.46,6.22c0,2.63,0.52,4.6,1.58,5.91c1.05,1.45,2.56,2.18,4.52,2.18c1.82,0,3.26-0.73,4.31-2.18
		C63.14,164.67,63.66,162.7,63.66,160.21"/>
	<path class="st1" d="M118.29,172.13v-1.76c-1.24,1.94-2.91,3.14-5.01,3.63c-2.1,0.48-4.18,0.31-6.24-0.52
		c-2.07-0.83-3.84-2.36-5.32-4.61c-1.48-2.25-2.22-5.2-2.22-8.87c0-4.28,0.98-7.75,2.94-10.41c1.96-2.66,5.11-3.87,9.45-3.99
		c4.27-0.11,6.76,0.85,9.19,2.7c2.66,2.02,4.23,5.12,4.23,9.95v14.62c0.01,4.65-3.23,13.27-13.42,12.54
		c-6.31-0.46-9.81-3.04-11.77-8.91h7.54c0.55,0.97,1.39,1.71,2.53,2.22c1.13,0.52,2.27,0.66,3.4,0.42c1.14-0.24,2.17-0.92,3.1-2.02
		C117.62,176,118.15,174.34,118.29,172.13 M106.52,160.21c0,4.76,1.38,7.41,4.13,7.93c2.75,0.51,4.78-0.13,6.09-1.92
		c0.62-0.75,1.07-1.95,1.34-3.57c0.27-1.62,0.29-3.23,0.05-4.82c-0.24-1.59-0.81-3.01-1.7-4.26c-0.89-1.24-2.2-1.87-3.92-1.87
		c-2.34,0-3.92,0.87-4.75,2.59C106.93,156.03,106.52,158,106.52,160.21"/>
	<path class="st1" d="M93.39,147.57c-2.33-1.18-4.99-1.77-7.98-1.77c-4.61,0-7.85,1.2-9.74,3.6c-1.19,1.53-1.86,3.49-2.01,5.88h6.88
		c0.17-1.05,0.5-1.88,1.01-2.5c0.71-0.83,1.92-1.25,3.62-1.25c1.53,0,2.68,0.21,3.46,0.64c0.78,0.42,1.18,1.2,1.18,2.31
		c0,0.92-0.51,1.59-1.54,2.03c-0.57,0.25-1.52,0.46-2.85,0.63l-2.44,0.3c-2.77,0.35-4.87,0.94-6.29,1.75
		c-2.61,1.5-3.9,3.93-3.9,7.27c0,2.58,0.81,4.58,2.43,5.99c1.61,1.41,3.67,2,6.15,2.12c15.55,0.69,15.37-8.2,15.52-10.04v-10.23
		C96.87,150.99,95.71,148.75,93.39,147.57 M89.77,163.1c-0.04,2.38-0.73,4.02-2.04,4.92c-1.31,0.9-2.74,1.35-4.3,1.35
		c-0.98,0-1.82-0.27-2.5-0.81c-0.69-0.54-1.03-1.42-1.03-2.64c0-1.36,0.56-2.37,1.68-3.02c0.67-0.38,1.76-0.71,3.28-0.97l1.62-0.3
		c0.81-0.15,1.45-0.32,1.91-0.49c0.47-0.17,0.93-0.4,1.38-0.68V163.1z"/>
	<path class="st1" d="M152.36,149.82c-2.29-2.87-5.78-4.31-10.44-4.31c-4.66,0-8.14,1.43-10.44,4.31
		c-2.29,2.87-3.44,6.26-3.44,10.18c0,3.99,1.15,7.39,3.44,10.22c2.29,2.82,5.78,4.24,10.44,4.24c4.67,0,8.15-1.42,10.44-4.24
		c2.29-2.84,3.44-6.24,3.44-10.22C155.79,156.09,154.65,152.69,152.36,149.82 M146.68,166.29c-1.11,1.48-2.7,2.22-4.78,2.22
		c-2.07,0-3.68-0.74-4.8-2.22c-1.12-1.47-1.68-3.57-1.68-6.29c0-2.72,0.56-4.81,1.68-6.28c1.12-1.47,2.72-2.2,4.8-2.2
		c2.08,0,3.67,0.73,4.78,2.2c1.11,1.47,1.67,3.56,1.67,6.28C148.35,162.72,147.79,164.82,146.68,166.29"/>
</g>
</svg>
