<?xml version="1.0" encoding="UTF-8"?>
<svg id="Capa_1" data-name="Capa 1" xmlns="http://www.w3.org/2000/svg" viewBox="0 0 300 343.65">
  <defs>
    <style>
      .cls-1 {
        fill: #fff;
      }
    </style>
  </defs>
  <g>
    <path class="cls-1" d="M150.93,154.2c-3.01,0-5.45-2.44-5.45-5.45V5.45c0-3.01,2.44-5.45,5.45-5.45s5.45,2.44,5.45,5.45V148.75c0,3.01-2.44,5.45-5.45,5.45Z"/>
    <path class="cls-1" d="M150.47,108.07c-1.39,0-2.79-.53-3.85-1.6l-47.54-47.53c-2.13-2.13-2.13-5.58,0-7.71,2.13-2.13,5.58-2.13,7.71,0l43.68,43.68,42.75-42.75c2.13-2.13,5.58-2.13,7.71,0,2.13,2.13,2.13,5.58,0,7.71l-46.6,46.6c-1.06,1.06-2.46,1.6-3.85,1.6Z"/>
    <path class="cls-1" d="M150.26,58.78c-1.39,0-2.79-.53-3.85-1.6l-23.61-23.61c-2.13-2.13-2.13-5.58,0-7.71,2.13-2.13,5.58-2.13,7.71,0l19.75,19.75,20.42-20.42c2.13-2.13,5.58-2.13,7.71,0,2.13,2.13,2.13,5.58,0,7.71l-24.28,24.28c-1.06,1.06-2.46,1.6-3.85,1.6Z"/>
  </g>
  <g>
    <path class="cls-1" d="M130.48,164.93c-.92,0-1.86-.24-2.72-.73L3.66,92.55c-2.61-1.5-3.5-4.84-1.99-7.44,1.5-2.61,4.84-3.5,7.44-1.99l124.11,71.65c2.61,1.5,3.5,4.84,1.99,7.44-1.01,1.75-2.84,2.73-4.72,2.73Z"/>
    <path class="cls-1" d="M25.36,159.67c-2.41,0-4.61-1.61-5.26-4.04-.78-2.91,.95-5.89,3.85-6.67l59.67-15.99-15.65-58.4c-.78-2.91,.95-5.89,3.85-6.67,2.9-.78,5.89,.94,6.67,3.85l17.06,63.66c.38,1.4,.18,2.88-.54,4.13s-1.91,2.16-3.31,2.54l-64.93,17.4c-.47,.13-.95,.19-1.41,.19Z"/>
    <path class="cls-1" d="M15.26,126.44c-2.41,0-4.61-1.61-5.26-4.04-.78-2.91,.95-5.89,3.85-6.67l26.98-7.23-7.48-27.9c-.78-2.91,.95-5.9,3.85-6.67,2.91-.79,5.89,.94,6.67,3.85l8.89,33.16c.38,1.4,.18,2.88-.54,4.13-.72,1.25-1.91,2.16-3.31,2.54l-32.25,8.64c-.47,.13-.95,.19-1.41,.19Z"/>
  </g>
  <g>
    <path class="cls-1" d="M5.46,259.65c-1.88,0-3.72-.98-4.72-2.73-1.5-2.61-.61-5.94,1.99-7.44l124.11-71.65c2.61-1.51,5.94-.61,7.44,1.99,1.5,2.61,.61,5.94-1.99,7.44L8.17,258.92c-.86,.5-1.79,.73-2.72,.73Z"/>
    <path class="cls-1" d="M72.44,276.41c-.47,0-.94-.06-1.41-.19-2.91-.78-4.63-3.77-3.85-6.67l15.99-59.67-58.4-15.65c-2.91-.78-4.63-3.77-3.85-6.67,.78-2.91,3.77-4.64,6.67-3.85l63.66,17.06c2.91,.78,4.63,3.77,3.85,6.67l-17.4,64.93c-.65,2.43-2.85,4.04-5.26,4.04Z"/>
    <path class="cls-1" d="M38.62,268.54c-.47,0-.94-.06-1.41-.19-2.91-.78-4.63-3.77-3.85-6.67l7.23-26.99-27.9-7.48c-2.91-.78-4.63-3.77-3.85-6.67,.78-2.91,3.77-4.64,6.67-3.85l33.16,8.89c2.91,.78,4.63,3.77,3.85,6.67l-8.64,32.25c-.65,2.43-2.85,4.04-5.26,4.04Z"/>
  </g>
  <g>
    <path class="cls-1" d="M149.07,343.65c-3.01,0-5.45-2.44-5.45-5.45V194.89c0-3.01,2.44-5.45,5.45-5.45s5.45,2.44,5.45,5.45v143.31c0,3.01-2.44,5.45-5.45,5.45Z"/>
    <path class="cls-1" d="M197.07,294.01c-1.39,0-2.79-.53-3.85-1.6l-43.68-43.68-42.75,42.75c-2.13,2.13-5.58,2.13-7.71,0-2.13-2.13-2.13-5.58,0-7.71l46.6-46.6c2.13-2.13,5.58-2.13,7.71,0l47.54,47.54c2.13,2.13,2.13,5.58,0,7.71-1.06,1.06-2.46,1.6-3.85,1.6Z"/>
    <path class="cls-1" d="M125.46,320.04c-1.39,0-2.79-.53-3.85-1.6-2.13-2.13-2.13-5.58,0-7.71l24.28-24.28c2.04-2.04,5.66-2.04,7.71,0l23.61,23.61c2.13,2.13,2.13,5.58,0,7.71-2.13,2.13-5.58,2.13-7.71,0l-19.75-19.75-20.42,20.42c-1.06,1.06-2.46,1.6-3.85,1.6Z"/>
  </g>
  <g>
    <path class="cls-1" d="M293.61,261.27c-.92,0-1.86-.24-2.72-.73l-124.11-71.65c-2.61-1.5-3.5-4.84-1.99-7.44,1.5-2.61,4.84-3.5,7.44-1.99l124.11,71.65c2.61,1.5,3.5,4.84,1.99,7.44-1.01,1.75-2.84,2.73-4.72,2.73Z"/>
    <path class="cls-1" d="M226.75,275.94c-2.41,0-4.61-1.61-5.26-4.04l-17.06-63.66c-.38-1.4-.18-2.88,.54-4.13,.72-1.25,1.91-2.16,3.31-2.54l64.93-17.4c2.9-.78,5.89,.94,6.67,3.85,.78,2.91-.95,5.9-3.85,6.67l-59.67,15.99,15.65,58.4c.78,2.91-.95,5.9-3.85,6.67-.47,.13-.95,.19-1.41,.19Z"/>
    <path class="cls-1" d="M261.36,269.91c-2.41,0-4.61-1.61-5.26-4.04l-8.89-33.16c-.78-2.91,.95-5.9,3.85-6.67l32.25-8.64c2.91-.78,5.9,.94,6.67,3.85,.78,2.91-.95,5.89-3.85,6.67l-26.98,7.23,7.47,27.9c.78,2.91-.95,5.89-3.85,6.67-.47,.13-.95,.19-1.41,.19Z"/>
  </g>
  <g>
    <path class="cls-1" d="M170.45,166.55c-1.88,0-3.72-.98-4.72-2.73-1.5-2.61-.61-5.94,1.99-7.44l124.11-71.65c2.61-1.51,5.94-.61,7.44,1.99,1.5,2.61,.61,5.94-1.99,7.44l-124.11,71.65c-.86,.5-1.79,.73-2.72,.73Z"/>
    <path class="cls-1" d="M273.83,160.13c-.47,0-.94-.06-1.41-.19l-63.66-17.06c-2.91-.78-4.63-3.77-3.85-6.67l17.4-64.93c.78-2.91,3.77-4.64,6.67-3.85,2.91,.78,4.63,3.77,3.85,6.67l-15.99,59.67,58.4,15.65c2.91,.78,4.63,3.77,3.85,6.67-.65,2.43-2.85,4.04-5.26,4.04Z"/>
    <path class="cls-1" d="M285.91,127.14c-.47,0-.94-.06-1.41-.19l-33.16-8.89c-1.4-.37-2.59-1.29-3.31-2.54s-.92-2.74-.54-4.13l8.64-32.25c.78-2.91,3.76-4.64,6.67-3.85,2.91,.78,4.63,3.77,3.85,6.67l-7.23,26.99,27.9,7.48c2.91,.78,4.63,3.77,3.85,6.67-.65,2.43-2.85,4.04-5.26,4.04Z"/>
  </g>
  <path class="cls-1" d="M150,200.34c-15.73,0-28.52-12.79-28.52-28.52s12.79-28.52,28.52-28.52,28.52,12.79,28.52,28.52-12.79,28.52-28.52,28.52Zm0-46.14c-9.72,0-17.62,7.9-17.62,17.62s7.9,17.62,17.62,17.62,17.62-7.9,17.62-17.62-7.9-17.62-17.62-17.62Z"/>
  <g>
    <path class="cls-1" d="M129.37,108.71l-19.18-18.88c-1.73-1.7-4.38-2.06-6.5-.86-2.12,1.19-3.19,3.64-2.63,6.01l6.54,27.53c.34,1.44,1.25,2.67,2.52,3.43l12.77,7.59c.86,.51,1.82,.77,2.78,.77s1.87-.24,2.71-.72c1.71-.98,2.75-2.8,2.74-4.77l-.13-16.25c-.01-1.45-.6-2.83-1.63-3.84Z"/>
    <path class="cls-1" d="M106.06,171.41c0-1.97-1.05-3.78-2.76-4.75l-14.13-8.01c-1.26-.72-2.75-.9-4.14-.51l-25.94,7.17c-2.34,.65-3.97,2.77-4,5.2-.03,2.43,1.56,4.58,3.89,5.28l27.11,8.11c.51,.15,1.04,.23,1.56,.23,.92,0,1.84-.24,2.66-.7l12.96-7.27c1.72-.96,2.78-2.77,2.78-4.74Z"/>
    <path class="cls-1" d="M127.68,209.67c-1.7-.99-3.8-.98-5.5,.01l-14.01,8.23c-1.25,.73-2.15,1.93-2.51,3.33l-6.76,26.05c-.61,2.35,.41,4.82,2.5,6.06,.86,.51,1.82,.76,2.77,.76,1.36,0,2.7-.51,3.74-1.49l20.58-19.43c1.07-1.01,1.69-2.42,1.71-3.89l.19-14.85c.02-1.97-1.01-3.79-2.71-4.78Z"/>
    <path class="cls-1" d="M192.4,221.13c-.34-1.44-1.25-2.67-2.52-3.43l-12.77-7.59c-1.69-1-3.79-1.02-5.5-.04-1.71,.98-2.75,2.8-2.74,4.77l.13,16.25c.01,1.45,.6,2.83,1.63,3.84l19.18,18.88c1.05,1.03,2.43,1.57,3.82,1.57,.92,0,1.84-.23,2.67-.7,2.12-1.19,3.19-3.64,2.63-6.01l-6.54-27.54Z"/>
    <path class="cls-1" d="M241.02,167.87l-27.11-8.11c-1.41-.42-2.94-.26-4.23,.47l-12.96,7.26c-1.71,.96-2.78,2.77-2.78,4.74,0,1.97,1.05,3.78,2.76,4.75l14.13,8.01c.83,.47,1.75,.71,2.69,.71,.49,0,.98-.07,1.45-.2l25.94-7.17c2.34-.65,3.97-2.77,4-5.2,.03-2.43-1.56-4.58-3.89-5.28Z"/>
    <path class="cls-1" d="M172.32,133.98c.85,.49,1.79,.74,2.74,.74s1.91-.25,2.76-.75l14-8.23c1.25-.73,2.15-1.93,2.51-3.33l6.76-26.05c.61-2.35-.41-4.82-2.5-6.06-2.09-1.24-4.75-.94-6.51,.73l-20.58,19.43c-1.07,1.01-1.69,2.42-1.71,3.89l-.19,14.85c-.02,1.97,1.01,3.79,2.71,4.78Z"/>
  </g>
</svg>