<?xml version="1.0" encoding="utf-8"?>
<!-- Generator: Adobe Illustrator 24.0.0, SVG Export Plug-In . SVG Version: 6.00 Build 0)  -->
<svg version="1.1" id="Flat" xmlns="http://www.w3.org/2000/svg" xmlns:xlink="http://www.w3.org/1999/xlink" x="0px" y="0px"
	 viewBox="0 0 512 512" style="enable-background:new 0 0 512 512;" xml:space="preserve">
<style type="text/css">
	.st0{fill:#A3D4F7;}
	.st1{fill:#1261A0;}
	.st2{fill:#E9EEF2;}
	.st3{fill:#DADCDE;}
</style>
<path class="st0" d="M56,104h400c17.7,0,32,14.3,32,32v240c0,17.7-14.3,32-32,32H56c-17.7,0-32-14.3-32-32V136
	C24,118.3,38.3,104,56,104z"/>
<path class="st1" d="M192,336H72c-4.4,0-8-3.6-8-8s3.6-8,8-8h120c4.4,0,8,3.6,8,8S196.4,336,192,336z"/>
<path class="st1" d="M232,368l-160,0c-4.4,0-8-3.6-8-8s3.6-8,8-8l160,0c4.4,0,8,3.6,8,8S236.4,368,232,368z"/>
<g>
	<path class="st2" d="M82,148h36c9.9,0,18,8.1,18,18v36c0,9.9-8.1,18-18,18H82c-9.9,0-18-8.1-18-18v-36C64,156.1,72.1,148,82,148z"
		/>
	<path class="st3" d="M64,175h18c5,0,9,4,9,9s-4,9-9,9H64V175z"/>
	<path class="st3" d="M136,193h-18c-5,0-9-4-9-9s4-9,9-9h18V193z"/>
</g>
<path class="st1" d="M120,272H72c-4.4,0-8-3.6-8-8s3.6-8,8-8h48c4.4,0,8,3.6,8,8S124.4,272,120,272z"/>
<path class="st1" d="M216,272h-48c-4.4,0-8-3.6-8-8s3.6-8,8-8h48c4.4,0,8,3.6,8,8S220.4,272,216,272z"/>
<path class="st1" d="M312,272h-48c-4.4,0-8-3.6-8-8s3.6-8,8-8h48c4.4,0,8,3.6,8,8S316.4,272,312,272z"/>
<path class="st1" d="M408,272h-48c-4.4,0-8-3.6-8-8s3.6-8,8-8h48c4.4,0,8,3.6,8,8S412.4,272,408,272z"/>
<g>
	<path class="st1" d="M432,224c-4.4,0-8-3.6-8-8c0-1.2,0.3-2.5,0.8-3.6c0.1-0.1,7.2-14.6,7.2-28.4s-7.1-28.3-7.2-28.4
		c-1.9-4-0.3-8.8,3.7-10.7c3.9-1.9,8.7-0.3,10.6,3.6c0.4,0.7,8.8,17.9,8.8,35.6s-8.5,34.9-8.8,35.6C437.8,222.3,435,224,432,224z"/>
	<path class="st1" d="M368,208c-4.4,0-8-3.6-8-8c0-2.1,0.8-4.2,2.3-5.7c2.3-2.3,5.7-7.2,5.7-10.3s-3.4-8-5.7-10.4
		c-3.1-3.1-3.1-8.2,0-11.3c3.1-3.1,8.2-3.1,11.3,0c1.1,1.1,10.3,10.7,10.3,21.7s-9.3,20.6-10.3,21.7C372.2,207.2,370.1,208,368,208
		L368,208z"/>
	<path class="st1" d="M405.7,154.3c-3.1-3.1-8.2-3.1-11.3,0s-3.1,8.2,0,11.3c0.1,0.1,5.7,6.2,5.7,18.3s-5.5,18.2-5.7,18.4l0.1-0.1
		c-3.1,3.1-3.1,8.2,0,11.3s8.2,3.1,11.3,0c1.1-1.1,10.3-10.9,10.3-29.7S406.7,155.4,405.7,154.3z"/>
</g>
</svg>
