<?xml version="1.0" encoding="utf-8"?>
<!-- Generator: Adobe Illustrator 23.0.3, SVG Export Plug-In . SVG Version: 6.00 Build 0)  -->
<svg version="1.1" id="Capa_1" xmlns="http://www.w3.org/2000/svg" xmlns:xlink="http://www.w3.org/1999/xlink" x="0px" y="0px"
	 viewBox="0 0 500 500" style="enable-background:new 0 0 500 500;" xml:space="preserve">
<style type="text/css">
	.st0{fill:#FFFFFF;}
	.st1{fill:#E7A594;}
	.st2{fill:#860026;}
</style>
<circle class="st0" cx="250" cy="250" r="250"/>
<path class="st1" d="M275.8,373.4c41.6-53,143-50.7,210.7-42.3c2.1-6,3.9-12.1,5.5-18.3c-169.9-16.5-226.3,41.5-239,58.4
	c0,0,0,0,0,0h0c0,0,0,0,0,0c22.3-110.8,177.8-110.3,237.3-105.9l7.8,14.9c1.1-9.5,1.8-19.2,1.8-29l-14.6-25.7l13.4,0.3
	C486.7,99.1,379.9,0,250,0S13.3,99.1,1.2,225.8l13.4-0.3L0,251.2c0,9.8,0.7,19.5,1.8,29l7.8-14.9c59.2-4.4,216.5-5.3,238.1,106.9
	l0,0v0v0c-11.1-15.1-65.9-76.4-239.8-59.4c1.6,6.2,3.5,12.3,5.5,18.4c67.6-8.5,169.1-10.7,210.7,42.3c0,0-48.9-37.4-199.9-15.8
	C64.5,441.8,150.4,500,250,500s185.5-58.2,225.7-142.4C324.7,336,275.8,373.4,275.8,373.4z M9.8,265l63.1-120.3
	c0,0,129,0.5,176.9,80.9c48.3-80.4,177.1-80.9,177.1-80.9L490,265c-219.4-22.6-239.7,68.8-239.7,68.8S230.1,242.2,9.8,265z"/>
<path class="st2" d="M362.5,237.3c-2.6,1-4.8,2.8-6.3,5.1l-0.5-1.5c-2.2-20.4-10.2-39.7-23.1-55.6l-0.5-1c2.8,0.5,5.6,0.2,8.2-1
	C352.2,199,359.9,217.6,362.5,237.3 M331.6,192.1c9.9,13.3,16.3,28.9,18.7,45.4c-0.9,0-1.7,0.4-2.2,1c-0.6-1.8-2.3-3-4.2-3.1
	c-4.4-0.2-4.6,4.4-3.9,8.8c-8,3.1-17.2-2-24.8-4.6c-0.7-0.2-1.4-0.5-2-0.7c-1.6-7.7-4.7-15-9-21.6c0.4-0.6,0.6-1.2,0.8-1.9
	c3.4-7.1,6.5-17.3,14.3-20.7c2.7,3.7,5.9,6.8,9,3.6c1.3-1.4,1.6-3.5,0.8-5.3C330,192.9,330.8,192.6,331.6,192.1 M319.2,162.1
	c-1.2,2.7-1.5,5.6-0.8,8.5c-16.5-14-37-22.5-58.6-24.3c2.4-1.6,4.3-3.9,5.4-6.6C284.8,142.4,303.4,150.1,319.2,162.1 M267.2,158.7
	c-0.1-2.1-1.5-4-3.6-4.6c0.5-0.6,0.9-1.4,1-2.2c16.8,2.4,32.8,9,46.4,19.2c-0.6,0.6-0.9,1.4-0.8,2.2c-1.9-1-4.2-0.7-5.8,0.7
	c-3.2,3.2,0.3,6.8,4.1,9.9c-4.2,7.6-13.3,11-21.8,15c-7.3-5.1-15.6-8.5-24.3-10c-3.2-8.8-7.3-17.5-4.9-26
	C262.1,163.3,267.2,163.2,267.2,158.7 M272.1,252.2c0,12.2-9.9,22.1-22.1,22.1c-12.2,0-22.1-9.9-22.1-22.1
	c0-12.2,9.9-22.1,22.1-22.1C262.2,230.1,272.1,240,272.1,252.2L272.1,252.2 M237.1,187.1c-0.2,0.6-0.4,1.3-0.7,1.9
	c-8.1,1.7-15.7,4.9-22.6,9.5c-8.5-3.9-17.7-7.3-21.8-15c3.7-2.9,7.3-6.6,4.1-9.9c-1.6-1.5-3.9-1.8-5.8-0.7c0-0.8-0.3-1.6-0.8-2.2
	c13.4-9.9,29.1-16.4,45.6-18.9c0,0.9,0.4,1.8,1,2.4c-1.8,0.6-3,2.3-3.1,4.2c-0.2,4.4,4.4,4.6,8.8,3.9
	C244.7,170.3,239.6,179.6,237.1,187.1 M240.1,146.2c-0.4,0-0.7,0.2-1,0.3c-21,2.2-40.9,10.5-57.1,24c0.6-2.8,0.3-5.7-0.8-8.3
	c15.7-12,34.3-19.7,53.9-22.3C236.2,142.4,237.9,144.6,240.1,146.2 M181,194.3c7.8,3.6,10.7,13.6,14.3,20.7c0.3,0.5,0.5,1.2,0.8,1.7
	c-4.4,6.7-7.5,14.2-9.2,22.1c-0.7,0.2-1.4,0.5-2,0.7c-7.5,2.5-16.8,7.6-24.8,4.6c0.7-4.4,0.7-9-3.9-8.8c-1.9,0.1-3.6,1.3-4.2,3.1
	c-0.6-0.5-1.4-0.9-2.2-1c2.5-16.6,9-32.3,19-45.7c0.6,0.6,1.5,1,2.4,1c-0.8,1.8-0.5,3.9,0.8,5.3C175,201.1,178.3,198,181,194.3
	 M168.2,184.1c-0.2,0.2-0.2,0.3-0.3,0.5c-13.3,16-21.5,35.6-23.6,56.3l-0.5,1.5c-1.6-2.3-3.7-4-6.3-5.1
	c2.6-19.8,10.4-38.6,22.6-54.4C162.6,184.1,165.5,184.5,168.2,184.1 M461.5,262.4c9.5,0.7,19.5,1.4,29.9,2.5
	c5.3-2.5,9.7-7.1,9.7-13.1c0.2-9-9.5-14.6-17.3-15.6c-6.5-0.8-13.1,1.2-19.2,3.2c-7.5,2.5-16.8,7.6-24.8,4.6c0.7-4.4,0.7-9-3.9-8.8
	c-1.9,0.1-3.6,1.3-4.2,3.1c-1.2-1.1-2.9-1.4-4.4-0.7c-2,0.8-3.4,2.6-3.7,4.8c-3.2-4.9-10.2-7.1-16.1-6.6
	c-3.1-30.5-15.1-59.5-34.5-83.3c4.6-4.1,7.8-10.7,6.5-16.3c1.8,1.3,4.1,1.6,6.1,0.7c1.4-0.6,2.3-1.9,2.4-3.4c1.9,1,4.2,0.7,5.8-0.7
	c3.2-3.2-0.3-6.8-4.1-9.9c7-12.6,26.7-13.4,35.9-24.3c5.1-6.1,8.3-17.5,1.9-24.1c-6.5-6.6-17.2-3.6-23.3,1.2
	c-5.3,3.9-8.5,10-11.2,15.8c-3.4,7.1-6.5,17.3-14.3,20.7c-2.7-3.7-5.9-6.8-9-3.6c-1.3,1.4-1.6,3.5-0.8,5.3c-1.6,0.1-3.1,1.1-3.6,2.7
	c-0.9,2-0.6,4.3,0.7,5.9c-5.6-1.2-12.1,2-16,6.5c-23.7-19.2-52.6-31.2-82.9-34.3c0.5-6.1-1.7-13.3-6.6-16.5c2.2-0.3,4-1.7,4.8-3.7
	c0.7-1.5,0.4-3.2-0.7-4.4c1.8-0.6,3-2.3,3.1-4.2c0.2-4.6-4.4-4.6-8.8-3.9c-3.1-8,2-17.2,4.6-24.8c2-6.1,4.1-12.6,3.2-19.2
	c-1-7.8-6.8-17.5-15.6-17.3c-9.2,0.2-15,10.4-15.6,18.4c-1.4,14.3,12.1,28.7,8.2,42.5c-4.8-0.5-9.9-0.5-9.9,4.1
	c0.1,2.1,1.5,4,3.6,4.6c-1.1,1-1.4,2.6-0.7,3.9c0.7,2.1,2.6,3.6,4.8,3.7c-5.3,3.1-7.5,10.4-7,16.7c-30.4,3.2-59.2,15.1-82.9,34.3
	c-4.1-4.4-10.4-7.8-16-6.5c1.3-1.7,1.6-4,0.7-5.9c-0.5-1.5-1.9-2.6-3.6-2.7c0.8-1.8,0.5-3.9-0.8-5.3c-3.1-3.2-6.3-0.2-9,3.6
	c-7.8-3.6-10.7-13.6-14.3-20.7c-2.9-5.8-6.1-11.9-11.2-15.8c-6.3-4.8-17.2-7.6-23.3-1.2c-6.5,6.6-3.2,17.8,1.9,24.1
	c9.2,11,28.9,11.7,35.9,24.3c-3.7,2.9-7.3,6.6-4.1,9.9c1.6,1.5,3.9,1.8,5.8,0.7c0,1.5,0.9,2.8,2.2,3.4c2,0.9,4.4,0.6,6.1-0.7
	c-1.5,5.8,1.9,12.2,6.5,16.3c-19.4,23.8-31.4,52.8-34.5,83.3c-5.9-0.2-12.6,1.9-15.6,6.8c-0.3-2.2-1.7-4-3.7-4.8
	c-1.5-0.7-3.2-0.4-4.4,0.7c-0.6-1.8-2.3-3-4.2-3.1c-4.4-0.2-4.6,4.4-3.9,8.8c-8,3.1-17.2-2-24.8-4.6c-6.1-2-12.6-4.1-19.2-3.2
	c-7.8,1-17.5,6.8-17.3,15.6c0.2,5.9,4.4,10.5,9.7,13.1c10.5-1,20.6-1.9,30.3-2.5c7.1-2.7,14.3-4.9,21.1-3.1c-0.1,0.7-0.2,1.4-0.2,2
	c26.6-0.9,53.2,0.6,79.5,4.4c1.8-1,3.3-2.5,4.4-4.2c0,0.2,0.2,0.3,0.2,0.5c0.1,1.5,0.4,3.1,0.7,4.6l5.1,1c0-0.3-0.2-0.8-0.2-1.2
	c0.8,0,1.6-0.4,2-1c0.4,1.3,1.3,2.4,2.5,3.1c0.7,0.2,1.4,0.3,2.2,0.5c4.4-0.2,4.4-5.1,3.9-9.9c8.5-2.5,17.3,1.7,26.2,4.9
	c1,5.6,2.8,10.9,5.4,16c51.2,21.4,58.3,53.4,58.3,53.4s7-31.8,57.8-53.2c2.6-5.1,4.4-10.5,5.4-16.1c8.8-3.2,17.7-7.5,26.2-4.9
	c-0.5,4.8-0.5,9.9,3.9,9.9c0.7-0.2,1.4-0.3,1.9-0.5c1.2-0.7,2.2-1.8,2.7-3.1c0.6,0.5,1.3,0.9,2,1c0,0.3-0.2,0.8-0.2,1.2l5.1-1
	c0.2-1.5,0.5-3.1,0.7-4.8c0-0.2,0.2-0.3,0.2-0.5c1,1.8,2.6,3.3,4.4,4.2c26.5-4,53.3-5.6,80.1-4.6c0-0.7-0.2-1.4-0.2-2
	C447.2,257.5,454.3,259.9,461.5,262.4"/>
</svg>
