<svg id="Capa_1" data-name="Capa 1" xmlns="http://www.w3.org/2000/svg" viewBox="0 0 424.7 376"><defs><style>.cls-1{fill:#e7a594;}.cls-2{fill:#860026;}</style></defs><title>icono</title><path class="cls-1" d="M251.8,280.1c7.8-10.4,43.8-47.3,155.1-32.7l-15.5-29.6c-35-2.6-126.5-2.9-139.6,62.3m-3.1.6c-12.7-66-105.3-65.5-140.1-62.9L93.1,247.4c113.8-15,148.8,24,155.6,33.3M72.4,263.3l39.1-68.9-13.9.3L39.5,288.8c150.5-41.7,195.3-7.4,195.3-7.4-38.2-48.7-162.4-18.1-162.4-18.1m318.8-45.7-37.1-70.8s-75.8.3-104.2,47.6c-28.2-47.3-104.1-47.6-104.1-47.6l-37.1,70.8c129.6-13.4,141.5,40.5,141.5,40.5s11.9-53.8,141-40.5m69.3,71.2-58.1-94.1-13.9-.3,39.1,68.9s-124.2-30.6-162.4,18.1c0,0,44.8-34.3,195.3,7.4" transform="translate(-37.7 -62)"/><path class="cls-2" d="M462.4,374.7v-3.8c-6.1-.9-6.8-1.2-6.8-8.6V340c0-11.8-5.9-18.9-15.5-18.9-3.4,0-5.7,1.1-9.2,3.3-2.6,1.7-5,3.5-7.3,5.2v-8.7a140.85,140.85,0,0,1-21.4,4.5v3.4c5.8,1.1,6.4,1.5,6.4,8.6v24.4c0,7.9-.6,8-7.9,9.1v3.8h28.4v-3.8c-4.8-.8-5.5-1.2-5.5-8.5V333.8c3.1-2.4,5.8-3.7,8.7-3.7,4.2,0,8.1,2.6,8.1,11.1v20.1c0,8.4-.6,8.7-5.5,9.6v3.8Zm-95.5-49c7.4,0,11.6,9.1,11.6,25.5,0,17.3-4.7,20.3-9.2,20.3-7.4,0-12-11.4-12-26,0-13.6,4.7-19.8,9.6-19.8Zm1.6-4.6c-13.1,0-28.1,9.7-28.1,28.7,0,12.9,9.1,26.3,27.6,26.3,13.8,0,27.4-9.4,27.4-28.4,0-14.2-10.4-26.6-26.8-26.6Zm-1-4.1,15.7-21.1-.7-1.2c-2-.5-11.7.5-12.9,1.3-.8,2.5-4.1,14.3-5.8,19.5Zm-32.9,57.7v-3.8c-6.3-.9-6.7-1.3-6.7-8V340.1c0-12-5.5-19-15.8-19a16.62,16.62,0,0,0-9.3,3.3c-2.8,2-5.7,3.8-8.5,6a14.2,14.2,0,0,0-13.5-9.3c-3.4,0-6.6,1.4-10.3,3.8a81.78,81.78,0,0,0-7.4,5.1v-9.1a184.91,184.91,0,0,1-20.8,4.5v3.4c5.4.8,6,2,6,8.7v24.8c0,7.4-.7,7.8-7.4,8.6v3.8h27.7v-3.8c-4.5-.7-5.3-1.3-5.3-8V334.1c3.3-2.5,6.3-3.8,9.1-3.8,4.4,0,8.1,2.6,8.1,11.1v21.5c0,7-.5,7.2-6,8v3.8h27.3v-3.8c-5.3-.7-6.1-1.3-6.1-8V339.1a30.55,30.55,0,0,0-.4-4.7c3.9-3.2,6.8-3.9,9.2-3.9,3.8,0,8.4,1.9,8.4,11.6v20.3c0,7.4-.9,7.9-6.1,8.6v3.8l27.8-.1Zm-98.4,0v-3.8c-7.1-.9-7.7-1.5-7.7-9.7V321.1a136.29,136.29,0,0,1-21.5,4.2v3.4c5.7.9,6.5,1.3,6.5,9.1v23.4c0,8.4-.7,8.8-7.6,9.7v3.8Zm-16.3-61a8.39,8.39,0,0,0,8.5-8.3,8.4,8.4,0,0,0-16.8,0c.2,4.5,4.1,8.3,8.3,8.3m-18,56.6-1.2-4.1a14.15,14.15,0,0,1-5.9,1.4c-2.5,0-6.7-1.1-6.7-10.3V328.2H199c1.9-.9,2.1-4.4.7-5.7H188.1V305.4l-1.7-.7-13.3,9.2v8.6h-4.7l-3.3,4.2.6,1.4h7.4v33c0,10.6,5.3,14.9,14.4,14.9a14.91,14.91,0,0,0,4.8-1.3Zm-65.4,4.4v-3.8c-7.2-.8-7.9-1.3-7.9-9.2v-70a151.09,151.09,0,0,1-22.1,4.2v3.4c6.5.8,7.1,1.2,7.1,8.3v54c0,7.6-.7,8.1-7.7,9.2v3.8h30.6v.1ZM97.8,354.3a45.68,45.68,0,0,1-6.6,11.6c-2.8,2.9-7.1,3.8-13.1,3.8-4.5,0-8.5-.2-10.6-1.2-2.4-1.2-2.8-4.1-2.8-9.7V338.4h7.9c10,0,11.4.5,13.1,9h4.2V323.6H85.6c-1.7,8.3-3.2,8.9-13.1,8.9H64.6v-25c0-3.9.5-4.1,4.8-4.1h5.7c6.6,0,9.8.8,11.8,2.9s3.7,6,4.8,10.1l4.2-.6c-.5-7.3-1.1-15.6-1.2-17.7H39.3v4.1c8.4.7,9.6,1.3,9.6,11.6v45.3c0,10-1.2,10.7-11.2,11.6v4.1H97.9c.9-3.5,3.4-14.3,4.1-19.6Z" transform="translate(-37.7 -62)"/><path d="M391.4,419.8a4.62,4.62,0,0,0,.7-.7,3,3,0,0,0,.5-.7,1.88,1.88,0,0,0,.2-.8,1.42,1.42,0,0,0-.2-.6,1.7,1.7,0,0,0-.6-.6,3.55,3.55,0,0,0-.9-.4,5,5,0,0,0-1.2-.2,5.08,5.08,0,0,0-1.7.3,6,6,0,0,0-1.5.9,7.41,7.41,0,0,0-1.3,1.2,12,12,0,0,0-1.1,1.2.76.76,0,0,0-.2.5,1.61,1.61,0,0,0,.3.9,2.74,2.74,0,0,0,.4.5c.9.6,1.8,1.1,2.7,1.7a15.91,15.91,0,0,1,2.4,2,9.12,9.12,0,0,1,1.7,2.3,6,6,0,0,1,.7,2.7,2.12,2.12,0,0,1-.4,1.4,4.74,4.74,0,0,1-1,1,3.33,3.33,0,0,1-1.5.5,8.2,8.2,0,0,1-3.6,0,6.36,6.36,0,0,1-1.8-.6,9.88,9.88,0,0,1-1.5-.9,6,6,0,0,1-1.1-1.2c-.1-.3-.3-.4-.6-.5a2,2,0,0,0-.7-.1,1.73,1.73,0,0,0-1.2.6,1.66,1.66,0,0,0-.5,1.3.76.76,0,0,0,.1.4,5.68,5.68,0,0,0,1.2,2.6,8.6,8.6,0,0,0,2,1.8,7.42,7.42,0,0,0,2.6,1,13.58,13.58,0,0,0,2.9.3,17.37,17.37,0,0,0,3.9-.5,13.49,13.49,0,0,0,3.5-1.4,7.28,7.28,0,0,0,2.4-2.2,5.29,5.29,0,0,0,.9-3,9,9,0,0,0-2-5.4,13.38,13.38,0,0,0-2.3-2.5,16.88,16.88,0,0,0-3.1-2.1,5.5,5.5,0,0,0,.9-.7m-20.8-3.4a12.7,12.7,0,0,0-3.7,1.8,18.1,18.1,0,0,0-3,2.5,29.15,29.15,0,0,0-2.3,2.9,13.48,13.48,0,0,0-1.4,3,9.72,9.72,0,0,0-.5,2.7,10.59,10.59,0,0,0,.5,3.1,8.16,8.16,0,0,0,1.4,2.6,8.36,8.36,0,0,0,2.3,1.8,7.45,7.45,0,0,0,3.1.7,20,20,0,0,0,4.1-.5c1.4-.4,2.7-.8,4-1.3a20.17,20.17,0,0,0,3.6-1.8c1.1-.6,2.1-1.3,3-1.8s1.6-1.1,2.1-1.5.9-.7,1-.8a1.2,1.2,0,0,0,.4-.8c0-.2.1-.4.1-.6a.6.6,0,0,0-.1-.4c0-.2-.1-.3-.2-.5s-.2-.3-.4-.4a1.07,1.07,0,0,0-.6-.2h-.4a1.69,1.69,0,0,0-.5.2c-.2.1-.5.3-1,.6s-1.1.7-1.9,1.1-1.6.9-2.5,1.3a25.5,25.5,0,0,1-2.9,1.3c-1,.4-2,.7-3,1a9.93,9.93,0,0,1-2.8.4,3.94,3.94,0,0,1-2-.5,2,2,0,0,1-.9-1.3,45.78,45.78,0,0,0,6.5-2.9,33.84,33.84,0,0,0,4.2-2.8,8.72,8.72,0,0,0,2.2-2.7,6.08,6.08,0,0,0,.6-2.5,4.22,4.22,0,0,0-1.2-3.2,4.89,4.89,0,0,0-3.6-1.2,20.48,20.48,0,0,0-4.2.7m3.9,3.6a.91.91,0,0,1,.3.7,2.37,2.37,0,0,1-.5,1.2,4.74,4.74,0,0,1-1.8,1.5,6.31,6.31,0,0,0-1,.7c-.5.3-1,.7-1.7,1.1s-1.3.8-2,1.3l-2.1,1.2c.1-.4.3-.8.5-1.4s.5-1.1.8-1.7a17.39,17.39,0,0,1,1.1-1.8,10.7,10.7,0,0,1,1.4-1.6,5.42,5.42,0,0,1,3.7-1.5h.6a4.88,4.88,0,0,1,.7.3M338,421.7c-.5,1-1,2-1.5,3.1s-1.1,2.2-1.6,3.3-1,2.1-1.4,3.1-.8,1.8-1,2.5a4.51,4.51,0,0,0-.4,1.6,2.45,2.45,0,0,0,.6,1.6,2.43,2.43,0,0,0,3.2,0,7.38,7.38,0,0,0,1.2-1.6c.3-.6.7-1.3,1-2a12.81,12.81,0,0,1,1.1-2c.6-.9,1.3-2,2.1-3.2s1.7-2.3,2.6-3.4A15.39,15.39,0,0,1,347,422a6.56,6.56,0,0,1,3.5-1.1.78.78,0,0,1,.7.3.84.84,0,0,1,.2.7,3,3,0,0,1-.4,1.3c-.3.6-.6,1.1-.9,1.8l-1.2,2.1c-.4.7-.9,1.5-1.3,2.2a21.4,21.4,0,0,0-1,2.2,8.35,8.35,0,0,0-.5,2v.8a3.61,3.61,0,0,0,.7,2.4,2.66,2.66,0,0,0,2.2.9,4.48,4.48,0,0,0,1.1-.1c.4-.1.9-.2,1.4-.3a23.5,23.5,0,0,0,3.8-1.4,30.13,30.13,0,0,0,3.1-1.6c.9-.6,1.9-1.2,2.8-1.8s1.9-1.4,3-2.2a6.68,6.68,0,0,0,1.8-2,4.14,4.14,0,0,0,.6-2,1.69,1.69,0,0,0-.3-1,1,1,0,0,0-.8-.4.6.6,0,0,0-.4.1c-.2.1-.3.2-.5.3-.6.5-1.3,1.1-2.1,1.7s-1.8,1.3-2.8,1.9a31.36,31.36,0,0,1-3.1,1.8,14.84,14.84,0,0,1-3.2,1.4,1.55,1.55,0,0,1-.6.3h-.5a.76.76,0,0,1-.5-.2c-.1-.1-.1-.2-.1-.4a1.5,1.5,0,0,1,.4-1.1c.2-.3.5-.8.8-1.3s.7-1.1,1.1-1.7.8-1.3,1.2-2a22.56,22.56,0,0,0,1.1-2.2,19.45,19.45,0,0,0,.8-2.2,8.33,8.33,0,0,0,.3-2.2,2.8,2.8,0,0,0-1-2.5,4.09,4.09,0,0,0-2.5-.7,10.12,10.12,0,0,0-2.9.4,24.88,24.88,0,0,0-2.9,1.1,30,30,0,0,0-2.6,1.5,7.43,7.43,0,0,0-1.8,1.7,1.61,1.61,0,0,0,.3-.9,2.49,2.49,0,0,0,.1-.8,2.25,2.25,0,0,0-.5-1.5,2.08,2.08,0,0,0-1.2-.5,2.93,2.93,0,0,0-1.7.6,3.68,3.68,0,0,0-1.4,1.8c-.4.7-.8,1.5-1.3,2.5m-19.9-5.1a12.52,12.52,0,0,0-3.7,2.2,15.84,15.84,0,0,0-2.8,3,19.34,19.34,0,0,0-1.9,3.4,16,16,0,0,0-1.1,3.3,10.44,10.44,0,0,0-.4,2.8,5.43,5.43,0,0,0,.7,2.9,6,6,0,0,0,1.6,1.9,7.81,7.81,0,0,0,2,1.1,6.8,6.8,0,0,0,1.9.3,16.84,16.84,0,0,0,4-.5,18.45,18.45,0,0,0,3.5-1.5,13.31,13.31,0,0,0,3-2.3,21.72,21.72,0,0,0,2.4-2.9,6.07,6.07,0,0,0,1.4.7,3.89,3.89,0,0,0,1.5.2,4.56,4.56,0,0,0,2.2-.6,13.66,13.66,0,0,0,2.1-1.5c.7-.6,1.3-1.2,1.9-1.8s1.1-1.2,1.6-1.7a7.23,7.23,0,0,0,1.7-2,4.12,4.12,0,0,0,.4-1.7,2.13,2.13,0,0,0-.3-1.2.87.87,0,0,0-.7-.4.76.76,0,0,0-.5.2,5.31,5.31,0,0,0-.9,1.1l-1.3,1.3c-.5.5-.9.9-1.5,1.4a6.1,6.1,0,0,1-1.6,1.2,6,6,0,0,1-1.5.9,3.45,3.45,0,0,1-1.3.3,2,2,0,0,1-.8-.1,1.79,1.79,0,0,1-.7-.5c.3-.8.5-1.6.7-2.3a7.14,7.14,0,0,0,.2-2,4.86,4.86,0,0,0-.7-2.8,5.16,5.16,0,0,0-1.8-1.8,6.71,6.71,0,0,0-2.3-1,9.69,9.69,0,0,0-2.3-.3,11.63,11.63,0,0,0-4.7.7m4.5,4.6a3,3,0,0,1,.8.8,2,2,0,0,1,.3,1.1c0,.4.1.8.1,1.2a7.17,7.17,0,0,1-.6,2.9,8.69,8.69,0,0,1-1.6,2.6,7.28,7.28,0,0,1-2.2,1.8,4.84,4.84,0,0,1-2.6.7,2.12,2.12,0,0,1-1.4-.4,3.45,3.45,0,0,1-.8-.9,5.64,5.64,0,0,1-.4-1.2,4.87,4.87,0,0,1-.1-1.2,7.53,7.53,0,0,1,.6-2.9,10.37,10.37,0,0,1,1.5-2.5,9.62,9.62,0,0,1,2.2-1.8,4.84,4.84,0,0,1,2.6-.7,6,6,0,0,1,1.6.5m-23.5-.9c-.3.5-.5,1.1-.8,1.6s-.4.9-.5,1.2a20,20,0,0,1-1,2.1c-.4.7-.7,1.5-1.1,2.3s-.6,1.6-.9,2.5a7.83,7.83,0,0,0-.4,2.6,4.64,4.64,0,0,0,1.3,3.7,5.31,5.31,0,0,0,3.7,1.2,9.6,9.6,0,0,0,3.3-.6,16.56,16.56,0,0,0,3.2-1.7,23.4,23.4,0,0,0,3.1-2.4c1-.9,2-1.9,3-2.9a3.6,3.6,0,0,0,1.1-1.4,3.93,3.93,0,0,0,.3-1.4,2.13,2.13,0,0,0-.3-1.2,1,1,0,0,0-.8-.5,2.08,2.08,0,0,0-1.2.5c-.3.3-.6.7-1.1,1.2l-1.4,1.4a20,20,0,0,1-1.6,1.4,20.28,20.28,0,0,1-1.8,1.3,7.57,7.57,0,0,1-1.8.9,5.08,5.08,0,0,1-1.7.3,2.68,2.68,0,0,1-1.1-.2,1.05,1.05,0,0,1-.4-1,5,5,0,0,1,.3-1.6,13.36,13.36,0,0,1,.7-1.8c.3-.6.5-1.2.8-1.7s.5-1.1.8-1.6a9.25,9.25,0,0,0,.5-1c.1-.3.3-.6.4-.9a9.25,9.25,0,0,1,.5-1c.2-.3.4-.8.7-1.3.1-.2.2-.3.2-.5s.1-.3.1-.5a2.5,2.5,0,0,0-.8-1.8,2.64,2.64,0,0,0-1.9-.7,3.08,3.08,0,0,0-1.3.3,2.61,2.61,0,0,0-1.1,1.2c-.3.7-.7,1.4-1,2m5-7a4,4,0,0,0,2.5.6,2.73,2.73,0,0,0,1.6-.4,3.33,3.33,0,0,0,1.1-.9,3.38,3.38,0,0,0,.6-1.2,5,5,0,0,0,.2-1.2,1.86,1.86,0,0,0-.7-1.6,3.34,3.34,0,0,0-2.3-.6,2.86,2.86,0,0,0-1.7.4,4,4,0,0,0-1.2,1,3.29,3.29,0,0,0-.7,1.3,3.4,3.4,0,0,0-.2,1.4,1.93,1.93,0,0,0,.8,1.2m-10.3,3.9a2.7,2.7,0,0,0-.7-.8,1.78,1.78,0,0,0-1-.4,4.87,4.87,0,0,0-1.2-.1,9.86,9.86,0,0,0-3.7.8,14.15,14.15,0,0,0-3.5,2.1,22,22,0,0,0-3.1,3,20.45,20.45,0,0,0-2.5,3.5,21.54,21.54,0,0,0-1.7,3.4,8.87,8.87,0,0,0-.6,3,5.38,5.38,0,0,0,.4,2.2,7.61,7.61,0,0,0,1.2,1.9,9.06,9.06,0,0,0,1.9,1.3,7.08,7.08,0,0,0,2.6.5,13.2,13.2,0,0,0,3.9-.6,25,25,0,0,0,3.8-1.5,39.72,39.72,0,0,0,3.5-2c1.1-.7,2-1.4,2.9-2a19.33,19.33,0,0,0,2-1.7l.9-.9a2,2,0,0,0,.4-.8c0-.2.1-.4.1-.6a.6.6,0,0,0-.1-.4c0-.2-.1-.3-.2-.5s-.2-.3-.4-.4a1.42,1.42,0,0,0-.6-.2,2.92,2.92,0,0,0-.9.2c-.2.1-.5.3-1,.6s-1.1.7-1.9,1.2a27.5,27.5,0,0,1-2.5,1.5,24.37,24.37,0,0,1-2.8,1.4c-1,.4-1.9.8-2.9,1.1a9.47,9.47,0,0,1-2.8.4,2.88,2.88,0,0,1-1.9-.6,1.86,1.86,0,0,1-.7-1.6,4.12,4.12,0,0,1,.4-1.7,9.34,9.34,0,0,1,1-2c.4-.7.9-1.4,1.4-2.1a14.54,14.54,0,0,1,1.6-1.8,9.14,9.14,0,0,1,1.6-1.3,3,3,0,0,1,1.5-.5c.4,0,.6.1.7.4a2.22,2.22,0,0,1,.1.9v1.8a.85.85,0,0,0,.2.6,1.17,1.17,0,0,0,.7.2,2.79,2.79,0,0,0,1.8-.6,4.81,4.81,0,0,0,1.2-1.6,11.76,11.76,0,0,0,.7-2,15,15,0,0,0,.2-2,1.91,1.91,0,0,0,0-1.3m-12.4,8.7a13.26,13.26,0,0,1-2.6,2.7,27.73,27.73,0,0,1-2.9,2.2,26,26,0,0,1-2.8,1.5,7.44,7.44,0,0,1-2.2.5c-.8,0-1.3-.3-1.3-1a7.1,7.1,0,0,1,.4-2.4c.3-.9.6-1.8,1-2.7s.8-1.8,1.3-2.7.9-1.7,1.3-2.5.7-1.5,1-2.1a3.35,3.35,0,0,0,.4-1.4,2.45,2.45,0,0,0-.6-1.6,2.36,2.36,0,0,0-1.6-.7,2.27,2.27,0,0,0-1.6.6,6.45,6.45,0,0,0-1.1,1.6,22,22,0,0,0-.9,2.1,20,20,0,0,1-1,2.1c-.5,1-1.2,2.1-1.9,3.2a21,21,0,0,1-2.6,3.3,18.6,18.6,0,0,1-3.1,2.6,6.53,6.53,0,0,1-3.6,1,1.16,1.16,0,0,1-1-.4,1.69,1.69,0,0,1-.3-1,7.42,7.42,0,0,1,.5-2.5,27.73,27.73,0,0,1,1-2.6,18.34,18.34,0,0,1,1.3-2.4c.5-.8.9-1.5,1.3-2.2s.8-1.3,1.1-1.8a6.87,6.87,0,0,0,.6-1.3,1.09,1.09,0,0,0,.1-.5,2.35,2.35,0,0,0-.2-.8,2.65,2.65,0,0,0-.6-.5c-.3-.1-.5-.3-.8-.3a2.49,2.49,0,0,0-.8-.1,3.37,3.37,0,0,0-1.7.5,3.76,3.76,0,0,0-1.4,1.6c-1.6,2.8-2.8,5.1-3.7,7.1a42,42,0,0,0-1.9,4.7,10.64,10.64,0,0,0-.7,2.7,6.17,6.17,0,0,0-.1.9,4.64,4.64,0,0,0,.4,2.1,3.48,3.48,0,0,0,1.1,1.3,5.07,5.07,0,0,0,1.5.7,11,11,0,0,0,1.8.2,12.26,12.26,0,0,0,3.9-.6,13.54,13.54,0,0,0,3.2-1.5,13.29,13.29,0,0,0,2.6-2.1,19.25,19.25,0,0,0,1.9-2.3,13.19,13.19,0,0,0-.5,3.1,3,3,0,0,0,3.1,3.4,9.4,9.4,0,0,0,3.1-.6,18.74,18.74,0,0,0,3.5-1.7,36.41,36.41,0,0,0,3.5-2.4,26.82,26.82,0,0,0,3-2.8ZM243.2,433a4.67,4.67,0,0,0,1.7.3,12.65,12.65,0,0,0,2.8-.3c.9-.2,1.8-.5,2.8-.8a16,16,0,0,0,2.7-1.2c.9-.5,1.7-.9,2.6-1.5a5.27,5.27,0,0,0,1-1.4,3.08,3.08,0,0,0,.3-1.3,1.37,1.37,0,0,0-.4-1.1.91.91,0,0,0-.8-.4.75.75,0,0,0-.7.4c-.4.3-1,.6-1.6,1s-1.4.7-2.1,1.1-1.6.6-2.5.9a12.22,12.22,0,0,1-2.6.3,1.48,1.48,0,0,1-.7-.1,1,1,0,0,1-.5-.4,18,18,0,0,0,1.1-2,11.87,11.87,0,0,0,.8-2.2c.2-.7.4-1.4.5-1.9s.2-1,.2-1.2a5.09,5.09,0,0,0-.5-2.2,4.81,4.81,0,0,0-1.2-1.6,5.85,5.85,0,0,0-1.7-1,5.66,5.66,0,0,0-1.8-.3,10.68,10.68,0,0,0-2.5.3,9.17,9.17,0,0,0-2.3.9c-.7.4-1.5.8-2.2,1.2l-2,1.4c1.4-2.7,2.8-5.5,4-8.3s2.6-5.6,4-8.3c.2-.4.4-.8.6-1.3a3.45,3.45,0,0,0,.3-1.3,2.11,2.11,0,0,0-.5-1.3,3.09,3.09,0,0,0-1.9-.5,4.55,4.55,0,0,0-1.9.6c-.3.2-.5.4-.8.6a3,3,0,0,0-.5.7l-8.4,18.7c-.2.5-.4.9-.5,1.2a4.12,4.12,0,0,0-.3.8c-.1.2-.2.5-.3.7a6.89,6.89,0,0,0-.3.8c-.1.3-.3.7-.4,1.1s-.4,1-.7,1.6c-.4,1-.7,2-1,3a10.79,10.79,0,0,0-.4,3,8.75,8.75,0,0,0,.3,2.4,4.9,4.9,0,0,0,1.1,2,6,6,0,0,0,2,1.4,8.53,8.53,0,0,0,3,.5,13.15,13.15,0,0,0,5.9-1.4,15.69,15.69,0,0,0,5.2-4.3,2,2,0,0,0,1.1.7m-2.8-12.2a2.34,2.34,0,0,1,.7.7,1.61,1.61,0,0,1,.3.9c0,.3.1.6.1.9a9.76,9.76,0,0,1-.7,3.3,10,10,0,0,1-2,2.9,9.36,9.36,0,0,1-2.8,2.1,7.22,7.22,0,0,1-3.2.8,2.9,2.9,0,0,1-1.4-.3,2.7,2.7,0,0,1-.8-.7,3.55,3.55,0,0,1-.4-.9,2.77,2.77,0,0,1-.1-.9,8,8,0,0,1,.8-3.3,12.7,12.7,0,0,1,2.1-2.9,10.19,10.19,0,0,1,3-2.1,8,8,0,0,1,3.3-.8,3.87,3.87,0,0,1,1.1.3m-26.5-.5c-.3.5-.5,1.1-.8,1.6s-.4.9-.5,1.2a20,20,0,0,1-1,2.1c-.4.7-.7,1.5-1.1,2.3s-.6,1.6-.9,2.5a7.46,7.46,0,0,0-.4,2.6,4.64,4.64,0,0,0,1.3,3.7,5.31,5.31,0,0,0,3.7,1.2,9.6,9.6,0,0,0,3.3-.6,16.56,16.56,0,0,0,3.2-1.7,23.4,23.4,0,0,0,3.1-2.4c1-.9,2-1.9,3-2.9a3.6,3.6,0,0,0,1.1-1.4,3.93,3.93,0,0,0,.3-1.4,2.13,2.13,0,0,0-.3-1.2,1,1,0,0,0-.8-.5,2.08,2.08,0,0,0-1.2.5c-.3.3-.6.7-1.1,1.2l-1.4,1.4a20,20,0,0,1-1.6,1.4,20.28,20.28,0,0,1-1.8,1.3,7.57,7.57,0,0,1-1.8.9,5.08,5.08,0,0,1-1.7.3,2.68,2.68,0,0,1-1.1-.2,1.18,1.18,0,0,1-.4-1,5,5,0,0,1,.3-1.6,13.36,13.36,0,0,1,.7-1.8c.3-.6.5-1.2.8-1.7s.5-1.1.8-1.6a9.25,9.25,0,0,0,.5-1c.1-.3.3-.6.4-.9a9.25,9.25,0,0,1,.5-1c.2-.3.4-.8.7-1.3.1-.2.2-.3.2-.5s.1-.3.1-.5a2.5,2.5,0,0,0-.8-1.8,2.64,2.64,0,0,0-1.9-.7,3.08,3.08,0,0,0-1.3.3,2.61,2.61,0,0,0-1.1,1.2,12.4,12.4,0,0,0-1,2m4.9-7a4,4,0,0,0,2.5.6,2.73,2.73,0,0,0,1.6-.4,3.33,3.33,0,0,0,1.1-.9,3.38,3.38,0,0,0,.6-1.2,5,5,0,0,0,.2-1.2,1.86,1.86,0,0,0-.7-1.6,3.34,3.34,0,0,0-2.3-.6,2.86,2.86,0,0,0-1.7.4,4,4,0,0,0-1.2,1,3.29,3.29,0,0,0-.7,1.3,3.4,3.4,0,0,0-.2,1.4,3.55,3.55,0,0,0,.8,1.2m-22,6.7h0c-.1-.1,0-.2,0-.3s.1-.2.1-.3.1-.2.1-.3a.35.35,0,0,1,.1-.2,1.22,1.22,0,0,0-.4-.9,1.7,1.7,0,0,0-1-.6,5,5,0,0,0-1.3-.4,7.57,7.57,0,0,0-1.5-.1,6.75,6.75,0,0,0-1.4.2,3.7,3.7,0,0,0-1.1.5,3,3,0,0,0-.8.8,2.13,2.13,0,0,0-.3,1.2,2.77,2.77,0,0,0,.3,1.3,5.5,5.5,0,0,0,.7.9c-.8,1.7-1.5,3.1-2.1,4.4s-1.1,2.4-1.6,3.4-.9,1.9-1.2,2.6a20.14,20.14,0,0,1-1.1,2.1,2.46,2.46,0,0,0-.4,1.1,2.49,2.49,0,0,0-.1.8,1.25,1.25,0,0,0,.4,1.1,1.8,1.8,0,0,0,1.1.3,3.45,3.45,0,0,0,1.3-.3,9.14,9.14,0,0,0,1.4-.7,12,12,0,0,0,1.2-1.1,3.77,3.77,0,0,0,.9-1.5c.3-.6.6-1.4,1-2.3s.8-1.8,1.3-2.7a21,21,0,0,1,1.3-2.6c.4-.8.8-1.5,1.1-2a3.4,3.4,0,0,1,1.2-1.2,9.5,9.5,0,0,1,1.7-1c.6-.3,1.2-.5,1.7-.7a3.63,3.63,0,0,1,1.1-.3.37.37,0,0,1,.3.1c0,.1.1.2.1.3a2.42,2.42,0,0,1-.4,1.3c-.3.5-.6,1-1,1.6a22,22,0,0,1-1.4,1.8,14.29,14.29,0,0,0-1.4,2,12,12,0,0,0-1.2,2.2,7.28,7.28,0,0,0-.7,2.4v.3a3,3,0,0,0,1,2.4,4.5,4.5,0,0,0,3,1,5.44,5.44,0,0,0,2-.4,24.43,24.43,0,0,0,2.4-1c.9-.4,1.8-.9,2.7-1.4s1.9-1.1,2.8-1.7,1.8-1.1,2.6-1.6,1.6-1,2.3-1.4a6.63,6.63,0,0,0,1.9-1.8,2.92,2.92,0,0,0,.6-1.5,1.06,1.06,0,0,0-1.2-1.2.9.9,0,0,0-.5.1c-.2.1-.4.1-.5.2-.8.5-1.7,1-2.9,1.6s-2.3,1.3-3.6,1.9-2.5,1.3-3.8,1.9-2.4,1.2-3.5,1.6c-.2,0-.2,0-.3-.1v-.3c0-.2.2-.5.6-1a12,12,0,0,1,1.6-1.6l2-2c.7-.7,1.4-1.5,2.1-2.2s1.2-1.4,1.7-2.1a5,5,0,0,0,.9-1.8,2.2,2.2,0,0,0,.1-.8v-.7a2.54,2.54,0,0,0-.7-2.1,3,3,0,0,0-2-.6,14.05,14.05,0,0,0-1.8.2,17.23,17.23,0,0,0-2.1.7c-.7.3-1.5.6-2.3,1a12.78,12.78,0,0,0-3.1,1.5Zm-4.6.6a3.73,3.73,0,0,0,1.2-.2,2.15,2.15,0,0,0,.7-.4,2.09,2.09,0,0,0,.4-.6,1.27,1.27,0,0,0,.1-.6,2.51,2.51,0,0,0-.2-1l-.6-.6c-.3-.1-.6-.2-1-.3s-.8-.1-1.3-.1h-9.4q1.05-2.1,2.1-3.9c.3-.5.6-1.1.9-1.6s.6-1.1.9-1.6.5-1,.8-1.4a4.45,4.45,0,0,0,.6-1.2,4.88,4.88,0,0,0,.6-1.3,2.15,2.15,0,0,0,.2-1.1,1.58,1.58,0,0,0-.7-1.5,3,3,0,0,0-1.6-.5,4.07,4.07,0,0,0-1.8.5,3.21,3.21,0,0,0-1.4,1.6l-6.1,12.1h-3.1a2.66,2.66,0,0,0-1.2.3l-.9.6a2.18,2.18,0,0,0-.5.8,2.54,2.54,0,0,0-.2.7,1.73,1.73,0,0,0,.6,1.2,3.72,3.72,0,0,0,2.2.5h1.2c-.5,1.1-1.1,2.2-1.7,3.4s-1.1,2.4-1.7,3.5a18.16,18.16,0,0,0-1.1,2.8,10.47,10.47,0,0,0-.5,3,7.72,7.72,0,0,0,.2,1.5,3,3,0,0,0,2,2,5.41,5.41,0,0,0,1.9.3,9.58,9.58,0,0,0,3.6-.7,21.65,21.65,0,0,0,3.7-1.9,44.44,44.44,0,0,0,3.8-2.7c1.3-1,2.5-2.1,3.8-3.2a3.92,3.92,0,0,0,1.2-1.4,3.53,3.53,0,0,0,.3-1.4,2,2,0,0,0-.3-1.1.91.91,0,0,0-.8-.4,1.61,1.61,0,0,0-.9.3c-.5.5-1.2,1-1.8,1.5s-1.4,1.1-2.2,1.6-1.5,1.1-2.3,1.6-1.5,1-2.2,1.4-1.4.7-2,1a5.62,5.62,0,0,1-1.5.4.85.85,0,0,1-.6-.2,1.42,1.42,0,0,1-.2-.6,5,5,0,0,1,.3-1.6,7.74,7.74,0,0,1,.7-1.6q.9-1.65,1.8-3.6c.6-1.3,1.3-2.7,2-4Zm-29.1-.8a4.62,4.62,0,0,0,.7-.7,3,3,0,0,0,.5-.7,1.88,1.88,0,0,0,.2-.8,1.42,1.42,0,0,0-.2-.6,1.7,1.7,0,0,0-.6-.6,3.55,3.55,0,0,0-.9-.4,5,5,0,0,0-1.2-.2,5.08,5.08,0,0,0-1.7.3,6,6,0,0,0-1.5.9,7.41,7.41,0,0,0-1.3,1.2,12,12,0,0,0-1.1,1.2.76.76,0,0,0-.2.5,1.61,1.61,0,0,0,.3.9,2.74,2.74,0,0,0,.4.5c.9.6,1.8,1.1,2.7,1.7a15.91,15.91,0,0,1,2.4,2,9.12,9.12,0,0,1,1.7,2.3,6,6,0,0,1,.7,2.7,2.12,2.12,0,0,1-.4,1.4,4.74,4.74,0,0,1-1,1,3.33,3.33,0,0,1-1.5.5,8.2,8.2,0,0,1-3.6,0,6.36,6.36,0,0,1-1.8-.6,9.88,9.88,0,0,1-1.5-.9,6,6,0,0,1-1.1-1.2c-.1-.3-.3-.4-.6-.5a2,2,0,0,0-.7-.1,1.73,1.73,0,0,0-1.2.6,1.66,1.66,0,0,0-.5,1.3.76.76,0,0,0,.1.4,5.68,5.68,0,0,0,1.2,2.6,8.6,8.6,0,0,0,2,1.8,7.42,7.42,0,0,0,2.6,1,13.58,13.58,0,0,0,2.9.3,17.37,17.37,0,0,0,3.9-.5,13.49,13.49,0,0,0,3.5-1.4,7.28,7.28,0,0,0,2.4-2.2,5.29,5.29,0,0,0,.9-3,9,9,0,0,0-2-5.4,13.38,13.38,0,0,0-2.3-2.5,16.88,16.88,0,0,0-3.1-2.1,5.5,5.5,0,0,0,.9-.7m-20.1.5c-.3.5-.5,1.1-.8,1.6s-.4.9-.5,1.2a20,20,0,0,1-1,2.1c-.4.7-.7,1.5-1.1,2.3a18.41,18.41,0,0,0-.9,2.5,7.46,7.46,0,0,0-.4,2.6,4.64,4.64,0,0,0,1.3,3.7,5.31,5.31,0,0,0,3.7,1.2,9.6,9.6,0,0,0,3.3-.6,16.56,16.56,0,0,0,3.2-1.7,23.4,23.4,0,0,0,3.1-2.4c1-.9,2-1.9,3-2.9a3.6,3.6,0,0,0,1.1-1.4,3.93,3.93,0,0,0,.3-1.4,2.13,2.13,0,0,0-.3-1.2,1.05,1.05,0,0,0-.9-.5,2.08,2.08,0,0,0-1.2.5c-.3.3-.6.7-1.1,1.2l-1.4,1.4a20,20,0,0,1-1.6,1.4,20.28,20.28,0,0,1-1.8,1.3,7.57,7.57,0,0,1-1.8.9,5.08,5.08,0,0,1-1.7.3,2.68,2.68,0,0,1-1.1-.2,1.05,1.05,0,0,1-.4-1,5,5,0,0,1,.3-1.6,13.36,13.36,0,0,1,.7-1.8c.3-.6.5-1.2.8-1.7s.5-1.1.8-1.6a9.25,9.25,0,0,0,.5-1c.1-.3.3-.6.4-.9a9.25,9.25,0,0,1,.5-1c.2-.3.4-.8.7-1.3.1-.2.2-.3.2-.5s.1-.3.1-.5a2.5,2.5,0,0,0-.8-1.8,2.64,2.64,0,0,0-1.9-.7,3.08,3.08,0,0,0-1.3.3,2.61,2.61,0,0,0-1.1,1.2c-.3.7-.7,1.4-.9,2m4.9-7a4,4,0,0,0,2.5.6,2.73,2.73,0,0,0,1.6-.4,3.33,3.33,0,0,0,1.1-.9,3.38,3.38,0,0,0,.6-1.2,5,5,0,0,0,.2-1.2,1.86,1.86,0,0,0-.7-1.6,3.34,3.34,0,0,0-2.3-.6,2.86,2.86,0,0,0-1.7.4,4,4,0,0,0-1.2,1,3.29,3.29,0,0,0-.7,1.3,3.4,3.4,0,0,0-.2,1.4,2.49,2.49,0,0,0,.8,1.2M124.4,409a5.66,5.66,0,0,0,.3-1.8,3.45,3.45,0,0,0-.5-1.8,2.14,2.14,0,0,0-1.8-.7,2.49,2.49,0,0,0-.8.1,4.88,4.88,0,0,0-1.3.6,7.89,7.89,0,0,0-1.5,1.2,13.87,13.87,0,0,0-1.7,2.1l-11.8,23.5a3.69,3.69,0,0,0-.7,1.4,4.53,4.53,0,0,0-.3,1.6,2.41,2.41,0,0,0,.7,1.8,2.14,2.14,0,0,0,1.8.7,35.35,35.35,0,0,0,9.9-1.3A39,39,0,0,0,125,433a33.42,33.42,0,0,0,6.7-5,33.93,33.93,0,0,0,4.9-6,29.22,29.22,0,0,0,3-6.5,20.65,20.65,0,0,0,1-6.3,16.86,16.86,0,0,0-.9-5.6,12.88,12.88,0,0,0-2.7-4.5,11.87,11.87,0,0,0-4.5-3,17.86,17.86,0,0,0-6.4-1.1,25.64,25.64,0,0,0-6.2.7,24.48,24.48,0,0,0-5.6,1.8,25.36,25.36,0,0,0-4.9,2.6,31.5,31.5,0,0,0-3.8,3,12.13,12.13,0,0,0-2.5,3.2,6.37,6.37,0,0,0-.9,3c0,1.5.8,2.2,2.5,2.2a4.14,4.14,0,0,0,2.3-.6,6.9,6.9,0,0,0,1.8-1.6,22.92,22.92,0,0,0,1.7-2.3,24.33,24.33,0,0,1,2-2.5,18,18,0,0,1,2.5-1.8,23.68,23.68,0,0,1,3.2-1.4c1.2-.4,2.4-.7,3.6-1a24.5,24.5,0,0,1,3.8-.4,7.82,7.82,0,0,1,3.5.7,7.63,7.63,0,0,1,2.5,1.8,8.18,8.18,0,0,1,1.4,2.8,12.86,12.86,0,0,1,.5,3.5,17.2,17.2,0,0,1-.8,4.8,23,23,0,0,1-2.3,5.1,32.36,32.36,0,0,1-3.6,4.9,26.08,26.08,0,0,1-4.6,4.2,29.53,29.53,0,0,1-5.4,3.2,20.48,20.48,0,0,1-6,1.6c.8-1.2,1.7-2.4,2.6-3.8s1.8-2.7,2.6-4.1,1.7-2.8,2.5-4.2,1.5-2.7,2.2-3.9,1.3-2.3,1.8-3.3,1-1.8,1.3-2.4l.6-1.8" transform="translate(-37.7 -62)"/><path class="cls-2" d="M316.2,201.3a7.86,7.86,0,0,0-3.7,3l-.3-.9a62.21,62.21,0,0,0-13.6-32.7l-.3-.6a8,8,0,0,0,4.8-.6,67.61,67.61,0,0,1,13.1,31.8M298,174.7a58.64,58.64,0,0,1,11,26.7,1.61,1.61,0,0,0-1.3.6,2.67,2.67,0,0,0-2.5-1.8c-2.6-.1-2.7,2.6-2.3,5.2-4.7,1.8-10.1-1.2-14.6-2.7-.4-.1-.8-.3-1.2-.4a37.61,37.61,0,0,0-5.3-12.7,5.36,5.36,0,0,0,.5-1.1c2-4.2,3.8-10.2,8.4-12.2,1.6,2.2,3.5,4,5.3,2.1a2.93,2.93,0,0,0,.5-3.1,3.39,3.39,0,0,0,1.5-.6m-7.3-17.6a7.83,7.83,0,0,0-.5,5,61.41,61.41,0,0,0-34.5-14.3,8.79,8.79,0,0,0,3.2-3.9,67.74,67.74,0,0,1,31.8,13.2m-30.6-2a2.88,2.88,0,0,0-2.1-2.7,2.62,2.62,0,0,0,.6-1.3,59.14,59.14,0,0,1,27.3,11.3,1.79,1.79,0,0,0-.5,1.3,3,3,0,0,0-3.4.4c-1.9,1.9.2,4,2.4,5.8-2.5,4.5-7.8,6.5-12.8,8.8a36.18,36.18,0,0,0-14.3-5.9c-1.9-5.2-4.3-10.3-2.9-15.3,2.7.3,5.7.2,5.7-2.4m2.9,55a13,13,0,1,1-13-13,13,13,0,0,1,13,13m-20.6-38.3a4.87,4.87,0,0,1-.4,1.1,38.4,38.4,0,0,0-13.3,5.6c-5-2.3-10.4-4.3-12.8-8.8,2.2-1.7,4.3-3.9,2.4-5.8a2.87,2.87,0,0,0-3.4-.4,2.11,2.11,0,0,0-.5-1.3,59.8,59.8,0,0,1,26.8-11.1,2,2,0,0,0,.6,1.4A2.67,2.67,0,0,0,240,155c-.1,2.6,2.6,2.7,5.2,2.3,1.7,4.6-1.3,10.1-2.8,14.5m1.8-24.1a1.42,1.42,0,0,0-.6.2A62.67,62.67,0,0,0,210,162a8.31,8.31,0,0,0-.5-4.9A66.83,66.83,0,0,1,241.2,144a9.12,9.12,0,0,0,3,3.7M209.4,176c4.6,2.1,6.3,8,8.4,12.2.2.3.3.7.5,1a37.35,37.35,0,0,0-5.4,13c-.4.1-.8.3-1.2.4-4.4,1.5-9.9,4.5-14.6,2.7.4-2.6.4-5.3-2.3-5.2a2.82,2.82,0,0,0-2.5,1.8,2.62,2.62,0,0,0-1.3-.6,59.67,59.67,0,0,1,11.2-26.9,2,2,0,0,0,1.4.6,2.75,2.75,0,0,0,.5,3.1c1.8,1.9,3.7.1,5.3-2.1m-7.5-6c-.1.1-.1.2-.2.3a61.94,61.94,0,0,0-13.9,33.1l-.3.9a8.5,8.5,0,0,0-3.7-3,67.17,67.17,0,0,1,13.3-32,8,8,0,0,0,4.8.7m172.5,46.1c5.6.4,11.5.8,17.6,1.5,3.1-1.5,5.7-4.2,5.7-7.7.1-5.3-5.6-8.6-10.2-9.2-3.8-.5-7.7.7-11.3,1.9-4.4,1.5-9.9,4.5-14.6,2.7.4-2.6.4-5.3-2.3-5.2a2.82,2.82,0,0,0-2.5,1.8,2.35,2.35,0,0,0-2.6-.4,3.7,3.7,0,0,0-2.2,2.8c-1.9-2.9-6-4.2-9.5-3.9a92.64,92.64,0,0,0-20.3-49c2.7-2.4,4.6-6.3,3.8-9.6a3.52,3.52,0,0,0,3.6.4,2.23,2.23,0,0,0,1.4-2,3,3,0,0,0,3.4-.4c1.9-1.9-.2-4-2.4-5.8,4.1-7.4,15.7-7.9,21.1-14.3,3-3.6,4.9-10.3,1.1-14.2s-10.1-2.1-13.7.7c-3.1,2.3-5,5.9-6.6,9.3-2,4.2-3.8,10.2-8.4,12.2-1.6-2.2-3.5-4-5.3-2.1a2.93,2.93,0,0,0-.5,3.1,2.27,2.27,0,0,0-2.1,1.6,3.37,3.37,0,0,0,.4,3.5c-3.3-.7-7.1,1.2-9.4,3.8a92.67,92.67,0,0,0-48.8-20.2c.3-3.6-1-7.8-3.9-9.7a3.45,3.45,0,0,0,2.8-2.2,2.35,2.35,0,0,0-.4-2.6,2.67,2.67,0,0,0,1.8-2.5c.1-2.7-2.6-2.7-5.2-2.3-1.8-4.7,1.2-10.1,2.7-14.6,1.2-3.6,2.4-7.4,1.9-11.3-.6-4.6-4-10.3-9.2-10.2-5.4.1-8.8,6.1-9.2,10.8-.8,8.4,7.1,16.9,4.8,25-2.8-.3-5.8-.3-5.8,2.4a2.88,2.88,0,0,0,2.1,2.7,1.91,1.91,0,0,0-.4,2.3,3.21,3.21,0,0,0,2.8,2.2c-3.1,1.8-4.4,6.1-4.1,9.8a92.67,92.67,0,0,0-48.8,20.2c-2.4-2.6-6.1-4.6-9.4-3.8a3.37,3.37,0,0,0,.4-3.5,2.37,2.37,0,0,0-2.1-1.6,2.75,2.75,0,0,0-.5-3.1c-1.8-1.9-3.7-.1-5.3,2.1-4.6-2.1-6.3-8-8.4-12.2-1.7-3.4-3.6-7-6.6-9.3-3.7-2.8-10.1-4.5-13.7-.7-3.8,3.9-1.9,10.5,1.1,14.2,5.4,6.5,17,6.9,21.1,14.3-2.2,1.7-4.3,3.9-2.4,5.8a2.87,2.87,0,0,0,3.4.4,2.23,2.23,0,0,0,1.3,2,3.57,3.57,0,0,0,3.6-.4c-.9,3.4,1.1,7.2,3.8,9.6a92.64,92.64,0,0,0-20.3,49c-3.5-.1-7.4,1.1-9.2,4a3.45,3.45,0,0,0-2.2-2.8,2.35,2.35,0,0,0-2.6.4,2.67,2.67,0,0,0-2.5-1.8c-2.6-.1-2.7,2.6-2.3,5.2-4.7,1.8-10.1-1.2-14.6-2.7-3.6-1.2-7.4-2.4-11.3-1.9-4.6.6-10.3,4-10.2,9.2.1,3.5,2.6,6.2,5.7,7.7,6.2-.6,12.1-1.1,17.8-1.5,4.2-1.6,8.4-2.9,12.4-1.8a4.87,4.87,0,0,0-.1,1.2,260,260,0,0,1,46.8,2.6,7,7,0,0,0,2.6-2.5c0,.1.1.2.1.3a25.12,25.12,0,0,0,.4,2.7l3,.6c0-.2-.1-.5-.1-.7a1.43,1.43,0,0,0,1.2-.6,3,3,0,0,0,1.5,1.8c.4.1.8.2,1.3.3,2.6-.1,2.6-3,2.3-5.8,5-1.5,10.2,1,15.4,2.9a33.69,33.69,0,0,0,3.2,9.4c30.1,12.6,34.3,31.4,34.3,31.4s4.1-18.7,34-31.3a34.34,34.34,0,0,0,3.2-9.5c5.2-1.9,10.4-4.4,15.4-2.9-.3,2.8-.3,5.8,2.3,5.8.4-.1.8-.2,1.1-.3a3.57,3.57,0,0,0,1.6-1.8,2.28,2.28,0,0,0,1.2.6c0,.2-.1.5-.1.7l3-.6c.1-.9.3-1.8.4-2.8,0-.1.1-.2.1-.3a6.27,6.27,0,0,0,2.6,2.5,253.05,253.05,0,0,1,47.1-2.7c0-.4-.1-.8-.1-1.2,3.6-.8,7.8.6,12,2.1" transform="translate(-37.7 -62)"/></svg>